G04*
G04 #@! TF.GenerationSoftware,Altium Limited,Altium Designer,20.1.12 (249)*
G04*
G04 Layer_Color=8388736*
%FSLAX25Y25*%
%MOIN*%
G70*
G04*
G04 #@! TF.SameCoordinates,5D91F948-5D34-48A5-82E7-886A0B8BAD73*
G04*
G04*
G04 #@! TF.FilePolarity,Negative*
G04*
G01*
G75*
%ADD10C,0.01000*%
%ADD11C,0.00800*%
%ADD12R,0.00800X0.00800*%
G36*
X90801Y50806D02*
X94194Y45716D01*
X93958Y45276D01*
X91535D01*
Y36417D01*
X89567D01*
Y45276D01*
X87144D01*
X86908Y45716D01*
X90301Y50806D01*
X90801D01*
D02*
G37*
G36*
X138779Y41339D02*
X141202D01*
X141438Y40898D01*
X138045Y35808D01*
X137545D01*
X134152Y40898D01*
X134388Y41339D01*
X136811D01*
Y50197D01*
X138779D01*
Y41339D01*
D02*
G37*
G36*
X192538Y43557D02*
Y43057D01*
X187449Y39664D01*
X187008Y39900D01*
Y42323D01*
X178150D01*
Y44291D01*
X187008D01*
Y46714D01*
X187449Y46950D01*
X192538Y43557D01*
D02*
G37*
D10*
X150558Y43307D02*
G03*
X150558Y43307I-12763J0D01*
G01*
X197802D02*
G03*
X197802Y43307I-12763J0D01*
G01*
X103314D02*
G03*
X103314Y43307I-12763J0D01*
G01*
X178150Y44291D02*
X187008D01*
X178150Y42323D02*
Y44291D01*
Y42323D02*
X187008D01*
Y39370D02*
Y42323D01*
Y39370D02*
X192913Y43307D01*
X187008Y47244D02*
X192913Y43307D01*
X187008Y44291D02*
Y47244D01*
X138779Y41339D02*
Y50197D01*
X136811D02*
X138779D01*
X136811Y41339D02*
Y50197D01*
X133858Y41339D02*
X136811D01*
X133858D02*
X137795Y35433D01*
X141732Y41339D01*
X138779D02*
X141732D01*
X86614Y45276D02*
X89567D01*
X86614D02*
X90551Y51181D01*
X94488Y45276D01*
X91535D02*
X94488D01*
X91535Y36417D02*
Y45276D01*
X89567Y36417D02*
X91535D01*
X89567D02*
Y45276D01*
D11*
X263779Y145669D02*
D03*
Y11811D02*
D03*
X11811D02*
D03*
Y145669D02*
D03*
D12*
X191503Y96595D02*
D03*
M02*
