G04*
G04 #@! TF.GenerationSoftware,Altium Limited,Altium Designer,20.1.12 (249)*
G04*
G04 Layer_Color=32768*
%FSLAX25Y25*%
%MOIN*%
G70*
G04*
G04 #@! TF.SameCoordinates,5D91F948-5D34-48A5-82E7-886A0B8BAD73*
G04*
G04*
G04 #@! TF.FilePolarity,Positive*
G04*
G01*
G75*
%ADD93C,0.00394*%
%ADD97C,0.00100*%
%ADD98C,0.00200*%
D93*
X169484Y66441D02*
Y71559D01*
X157516Y66441D02*
Y71559D01*
Y66441D02*
X169484D01*
X157516Y71559D02*
X169484D01*
X182484Y66441D02*
Y71559D01*
X170516Y66441D02*
Y71559D01*
Y66441D02*
X182484D01*
X170516Y71559D02*
X182484D01*
X195484Y66441D02*
Y71559D01*
X183516Y66441D02*
Y71559D01*
Y66441D02*
X195484D01*
X183516Y71559D02*
X195484D01*
X32441Y79984D02*
X37559D01*
X32441Y68016D02*
X37559D01*
Y79984D01*
X32441Y68016D02*
Y79984D01*
X204016Y9441D02*
Y14559D01*
X215984Y9441D02*
Y14559D01*
X204016D02*
X215984D01*
X204016Y9441D02*
X215984D01*
X170016D02*
X181984D01*
X170016Y14559D02*
X181984D01*
Y9441D02*
Y14559D01*
X170016Y9441D02*
Y14559D01*
X151366Y3768D02*
Y12232D01*
X134732Y3768D02*
Y12232D01*
X151366D01*
X134732Y3768D02*
X151366D01*
X141032Y8000D02*
X144968D01*
X143000Y6032D02*
Y9968D01*
X156016Y9441D02*
Y14559D01*
X167984Y9441D02*
Y14559D01*
X156016D02*
X167984D01*
X156016Y9441D02*
X167984D01*
X110240Y20988D02*
X127465D01*
X118262Y14035D02*
X119443D01*
X118850Y14626D02*
X118852Y13445D01*
X110240Y7110D02*
Y20988D01*
Y7110D02*
X127465D01*
Y20988D01*
D97*
X146747Y71800D02*
Y75200D01*
X152946D01*
Y71800D02*
Y75200D01*
X146747Y71800D02*
X152946D01*
X146747Y65800D02*
Y69200D01*
X152946D01*
Y65800D02*
Y69200D01*
X146747Y65800D02*
X152946D01*
X144900Y60300D02*
Y63700D01*
X151100D01*
Y60300D02*
Y63700D01*
X144900Y60300D02*
X151100D01*
X152847Y40800D02*
Y44200D01*
X146646Y40800D02*
X152847D01*
X146646D02*
Y44200D01*
X152847D01*
X199946Y46300D02*
Y49700D01*
X193746Y46300D02*
X199946D01*
X193746D02*
Y49700D01*
X199946D01*
Y40800D02*
Y44200D01*
X193746Y40800D02*
X199946D01*
X193746D02*
Y44200D01*
X199946D01*
Y51800D02*
Y55200D01*
X193746Y51800D02*
X199946D01*
X193746D02*
Y55200D01*
X199946D01*
X152847Y51800D02*
Y55200D01*
X146646Y51800D02*
X152847D01*
X146646D02*
Y55200D01*
X152847D01*
Y46305D02*
Y49705D01*
X146646Y46305D02*
X152847D01*
X146646D02*
Y49705D01*
X152847D01*
X107147Y47500D02*
Y50900D01*
X100946Y47500D02*
X107147D01*
X100946D02*
Y50900D01*
X107147D01*
X107046Y35100D02*
Y38500D01*
X100847Y35100D02*
X107046D01*
X100847D02*
Y38500D01*
X107046D01*
X107100Y40600D02*
Y44000D01*
X100900Y40600D02*
X107100D01*
X100900D02*
Y44000D01*
X107100D01*
X70900Y69300D02*
X77100D01*
Y72700D01*
X70900D02*
X77100D01*
X70900Y69300D02*
Y72700D01*
X57900Y106400D02*
X61300D01*
Y100200D02*
Y106400D01*
X57900Y100200D02*
X61300D01*
X57900D02*
Y106400D01*
X57902Y92931D02*
X61302D01*
Y86731D02*
Y92931D01*
X57902Y86731D02*
X61302D01*
X57902D02*
Y92931D01*
X48300Y42900D02*
X51700D01*
X48300D02*
Y49100D01*
X51700D01*
Y42900D02*
Y49100D01*
X54300D02*
X57700D01*
Y42900D02*
Y49100D01*
X54300Y42900D02*
X57700D01*
X54300D02*
Y49100D01*
X60300Y42900D02*
X63700D01*
X60300D02*
Y49100D01*
X63700D01*
Y42900D02*
Y49100D01*
X77100Y63300D02*
Y66700D01*
X70900Y63300D02*
X77100D01*
X70900D02*
Y66700D01*
X77100D01*
X219300Y14100D02*
X222700D01*
Y7900D02*
Y14100D01*
X219300Y7900D02*
X222700D01*
X219300D02*
Y14100D01*
X196300Y7900D02*
X199700D01*
X196300D02*
Y14100D01*
X199700D01*
Y7900D02*
Y14100D01*
X190300D02*
X193700D01*
Y7900D02*
Y14100D01*
X190300Y7900D02*
X193700D01*
X190300D02*
Y14100D01*
X130900Y89800D02*
Y93200D01*
X137100D01*
Y89800D02*
Y93200D01*
X130900Y89800D02*
X137100D01*
X130900Y83800D02*
Y87200D01*
X137100D01*
Y83800D02*
Y87200D01*
X130900Y83800D02*
X137100D01*
X105800Y64100D02*
X109200D01*
Y57900D02*
Y64100D01*
X105800Y57900D02*
X109200D01*
X105800D02*
Y64100D01*
X59900Y117300D02*
Y120700D01*
X66100D01*
Y117300D02*
Y120700D01*
X59900Y117300D02*
X66100D01*
X70900Y81300D02*
Y84700D01*
X77100D01*
Y81300D02*
Y84700D01*
X70900Y81300D02*
X77100D01*
X70900Y75300D02*
Y78700D01*
X77100D01*
Y75300D02*
Y78700D01*
X70900Y75300D02*
X77100D01*
X146900Y100300D02*
X153100D01*
Y103700D01*
X146900D02*
X153100D01*
X146900Y100300D02*
Y103700D01*
Y94300D02*
X153100D01*
Y97700D01*
X146900D02*
X153100D01*
X146900Y94300D02*
Y97700D01*
X79700Y140900D02*
Y147100D01*
X76300D02*
X79700D01*
X76300Y140900D02*
Y147100D01*
Y140900D02*
X79700D01*
D98*
X176373Y11546D02*
Y12879D01*
X176706Y13212D01*
X177372D01*
X177706Y12879D01*
Y11546D01*
X177372Y11213D01*
X176706D01*
X177039Y11879D02*
X176373Y11213D01*
X176706D02*
X176373Y11546D01*
X174706Y11213D02*
Y13212D01*
X175706Y12212D01*
X174373D01*
X36212Y72294D02*
X34546D01*
X34213Y72628D01*
Y73294D01*
X34546Y73627D01*
X36212D01*
X34213Y75293D02*
X36212D01*
X35212Y74294D01*
Y75627D01*
X144877Y7600D02*
Y9099D01*
X144127D01*
X143877Y8849D01*
Y8350D01*
X144127Y8100D01*
X144877D01*
X144377D02*
X143877Y7600D01*
X143377D02*
X142877D01*
X143127D01*
Y9099D01*
X143377Y8849D01*
X141128Y9099D02*
X142128D01*
Y8350D01*
X141628Y8600D01*
X141378D01*
X141128Y8350D01*
Y7850D01*
X141378Y7600D01*
X141878D01*
X142128Y7850D01*
X119105Y13885D02*
Y14885D01*
X119354Y15135D01*
X119854D01*
X120104Y14885D01*
Y13885D01*
X119854Y13635D01*
X119354D01*
X119604Y14135D02*
X119105Y13635D01*
X119354D02*
X119105Y13885D01*
X117605Y13635D02*
X118605D01*
X117605Y14635D01*
Y14885D01*
X117855Y15135D01*
X118355D01*
X118605Y14885D01*
M02*
