M48
;Layer_Color=9474304
;FILE_FORMAT=2:5
INCH,LZ
;TYPE=PLATED
T1F00S00C0.01575
T2F00S00C0.02165
T4F00S00C0.15748
;TYPE=NON_PLATED
%
T01
X0035433Y0076772
X0031532Y0089854
X00185Y00956
X0059861Y0096507
X00568Y01062
X00554Y0119
X00526Y0117
X00491Y0121
X00665Y0132
X0086Y0126
X00833Y01118
X0084939Y0108561
X0093606Y0107077
X00973Y00927
X00977Y00893
X0095472Y0083178
X00995Y00792
X0111Y0082
X01139Y00799
X01172Y00784
X01183Y00821
X01335Y0082378
X0137428Y0074089
X0149Y00735
Y00675
X01425Y0065
X0133767Y0094704
X01286Y011
X013Y0118
X0136899Y0118209
X0134Y0122
X0137Y0136
X0108Y0127
X0115149Y0109417
X0110236Y0100394
X0108268Y0096457
X01083Y0090681
X01035Y0064764
X0084646Y0076772
X0064961Y0074803
X0066929Y0070866
Y0082677
X00757Y01056
X00778Y0116
X0027953Y0139528
X0176Y0105
X0179Y0103
X01765Y0095
X0177Y0074
X0164648Y0074103
X0197Y0074
X01795Y0013764
X02095Y0007264
X0220781Y001888
X0214302Y0143947
X0211Y01455
X0244418Y0143883
X02475Y01455
T02
X0004Y00287
X0007954
X0011907
X0015861
X0019814
X0023768
X00175Y00239
X00467Y00322
X00393Y00422
X0042502Y0063037
X0046002Y0072537
X0047Y00945
X0041002Y0107037
X00199Y01076
X0011427Y0102127
X00116Y00602
X00685Y00601
X00676Y00324
X0066002Y0025537
X0058502Y0023037
X0055502Y0015037
X0058502Y0007037
X0066002Y0004537
X0073502Y0007037
X0076502Y0014537
X0073502Y0023037
X01143Y00366
X0117002Y0053537
X01214Y01094
X01213Y01154
X01153Y01153
X01037Y01142
X01036Y0119
X00985Y01191
Y01142
X0083838Y0094774
X0070598Y0091919
X0073Y01355
X00593Y0141763
Y01457
Y0149637
Y0153574
X0035217Y0145674
Y0141737
Y01378
Y0133863
Y0129926
X0101Y01475
X0142002Y0105037
X01705Y01215
Y01265
X0188976Y0125984
X019685Y0102362
Y0094488
Y0086614
Y007874
X0185039
Y0086614
X0177165
X01608Y00366
X0231585Y0035433
Y003937
Y0043307
Y0031496
Y0027559
Y0023622
X0244094
Y0027559
Y0031496
Y0035433
Y003937
Y0043307
Y0051181
Y0059055
Y0066929
Y0074803
Y0082677
Y0090551
Y0098425
Y0106299
Y0114173
Y0122047
Y0129921
X0270669Y0098425
Y0090551
Y0082677
Y0074803
Y0066929
Y0059055
Y0051181
Y0043307
Y0035433
Y0027559
T04
X0011811Y0011811
Y0145669
X0263779
Y0011811
M30
