G04*
G04 #@! TF.GenerationSoftware,Altium Limited,Altium Designer,20.1.12 (249)*
G04*
G04 Layer_Color=32896*
%FSLAX25Y25*%
%MOIN*%
G70*
G04*
G04 #@! TF.SameCoordinates,30145908-788B-4F26-A393-318D171005B0*
G04*
G04*
G04 #@! TF.FilePolarity,Positive*
G04*
G01*
G75*
%ADD10C,0.00984*%
%ADD11C,0.02362*%
%ADD12C,0.01000*%
%ADD13C,0.00787*%
%ADD14C,0.00394*%
%ADD15C,0.00591*%
%ADD16C,0.00500*%
%ADD17C,0.00709*%
%ADD18C,0.00600*%
G36*
X253055Y134964D02*
X253115D01*
X253174D01*
X253234D01*
X253294D01*
X253353D01*
X253413D01*
X253472D01*
X253532D01*
X253592D01*
X253651D01*
X253711D01*
X253771D01*
X253830D01*
X253890D01*
X253949D01*
X254009D01*
X254069D01*
X254128D01*
X254188D01*
X254247D01*
X254307D01*
X254367D01*
X254426D01*
X254486D01*
X254546D01*
X254605D01*
X254665D01*
X254724D01*
X254784D01*
X254844D01*
X254903D01*
X254963D01*
X255023D01*
X255082D01*
X255142D01*
X255201D01*
X255261D01*
X255321D01*
X255380D01*
X255440D01*
X255500D01*
X255559D01*
X255619D01*
X255678D01*
X255738D01*
X255798D01*
X255857D01*
X255917D01*
X255976D01*
X256036D01*
X256096D01*
X256155D01*
X256215D01*
X256275D01*
X256334D01*
X256394D01*
X256453D01*
X256513D01*
X256573D01*
X256632D01*
X256692D01*
X256751D01*
X256811D01*
X256871D01*
X256930D01*
X256990D01*
X257049D01*
X257109D01*
X257169D01*
X257228D01*
X257288D01*
X257348D01*
X257407D01*
X257467D01*
X257526D01*
X257586D01*
X257646D01*
X257705D01*
X257765D01*
X257824D01*
X257884D01*
X257944D01*
X258003D01*
X258063D01*
X258123D01*
X258182D01*
X258242D01*
X258301D01*
X258361D01*
X258421D01*
X258480D01*
X258540D01*
X258600D01*
X258659D01*
X258719D01*
X258778D01*
X258838D01*
X258898D01*
X258957D01*
X259017D01*
X259076D01*
X259136D01*
X259196D01*
X259255D01*
X259315D01*
X259375D01*
X259434D01*
X259494D01*
X259554D01*
X259613D01*
X259673D01*
X259732D01*
X259792D01*
X259852D01*
X259911D01*
X259971D01*
X260030D01*
X260090D01*
X260150D01*
X260209D01*
X260269D01*
X260329D01*
X260388D01*
X260448D01*
X260507D01*
X260567D01*
X260627D01*
X260686D01*
X260746D01*
X260805D01*
X260865D01*
X260925D01*
X260984D01*
X261044D01*
X261104D01*
X261163D01*
X261223D01*
X261282D01*
X261342D01*
X261402D01*
X261461D01*
X261521D01*
X261580D01*
X261640D01*
X261700D01*
X261759D01*
X261819D01*
X261878D01*
X261938D01*
X261998D01*
X262057D01*
X262117D01*
X262177D01*
X262236D01*
X262296D01*
X262355D01*
X262415D01*
X262475D01*
X262534D01*
X262594D01*
X262653D01*
X262713D01*
X262773D01*
X262832D01*
X262892D01*
X262952D01*
X263011D01*
X263071D01*
X263130D01*
X263190D01*
X263250D01*
X263309D01*
X263369D01*
X263429D01*
X263488D01*
X263548D01*
X263607D01*
X263667D01*
X263727D01*
X263786D01*
X263846D01*
X263906D01*
X263965D01*
X264025D01*
X264084D01*
X264144D01*
X264204D01*
X264263D01*
X264323D01*
X264383D01*
X264442D01*
X264502D01*
X264561D01*
X264621D01*
X264681D01*
X264740D01*
X264800D01*
X264859D01*
X264919D01*
X264979D01*
X265038D01*
X265098D01*
X265158D01*
X265217D01*
X265277D01*
X265336D01*
X265396D01*
X265456D01*
X265515D01*
X265575D01*
X265634D01*
X265694D01*
X265754D01*
X265813D01*
X265873D01*
X265932D01*
X265992D01*
X266052D01*
X266111D01*
X266171D01*
X266231D01*
X266290D01*
X266350D01*
X266409D01*
X266469D01*
X266529D01*
X266588D01*
X266648D01*
X266707D01*
X266767D01*
X266827D01*
X266886D01*
X266946D01*
X267006D01*
X267065D01*
X267125D01*
X267184D01*
X267244D01*
X267304D01*
X267363D01*
X267423D01*
X267483D01*
X267542D01*
X267602D01*
X267661D01*
X267721D01*
X267781D01*
X267840D01*
X267900D01*
X267959D01*
X268019D01*
X268079D01*
X268138D01*
X268198D01*
X268258D01*
X268317D01*
X268377D01*
X268436D01*
X268496D01*
X268556D01*
X268615D01*
X268675D01*
X268735D01*
X268794D01*
X268854D01*
X268913D01*
X268973D01*
X269033D01*
X269092D01*
X269152D01*
X269212D01*
X269271D01*
X269331D01*
X269390D01*
X269450D01*
X269510D01*
X269569D01*
X269629D01*
X269688D01*
X269748D01*
X269808D01*
X269867D01*
X269927D01*
X269987D01*
X270046D01*
X270106D01*
X270165D01*
X270225D01*
X270285D01*
X270344D01*
X270404D01*
X270463D01*
X270523D01*
X270583D01*
X270642D01*
X270702D01*
X270761D01*
X270821D01*
X270881D01*
X270940D01*
X271000D01*
X271060D01*
X271119D01*
X271179D01*
X271238D01*
X271298D01*
X271358D01*
X271417D01*
X271477D01*
X271537D01*
X271596D01*
X271656D01*
X271715D01*
X271775D01*
X271835D01*
X271894D01*
X271954D01*
X272013D01*
X272073D01*
X272133D01*
X272192D01*
X272252D01*
X272312D01*
X272371D01*
X272431D01*
X272490D01*
X272550D01*
X272610D01*
X272669D01*
X272729D01*
X272789D01*
X272848D01*
X272908D01*
X272967D01*
X273027D01*
X273087D01*
X273146D01*
X273206D01*
X273266D01*
X273325D01*
X273385D01*
X273444D01*
X273504D01*
X273564D01*
X273623D01*
X273683D01*
X273742D01*
X273802D01*
X273862D01*
X273921D01*
X273981D01*
X274041D01*
X274100D01*
X274160D01*
X274219D01*
X274279D01*
X274339D01*
X274398D01*
X274458D01*
X274517D01*
X274577D01*
X274637D01*
X274696D01*
X274756D01*
X274816D01*
X274875D01*
X274935D01*
X274994D01*
X275054D01*
X275114D01*
X275173D01*
X275233D01*
X275292D01*
X275352D01*
X275412D01*
X275471D01*
X275531D01*
Y100803D01*
X275471D01*
X275412D01*
X275352D01*
X275292D01*
X275233D01*
X275173D01*
X275114D01*
X275054D01*
X274994D01*
X274935D01*
X274875D01*
X274816D01*
X274756D01*
X274696D01*
X274637D01*
X274577D01*
X274517D01*
X274458D01*
X274398D01*
X274339D01*
X274279D01*
X274219D01*
X274160D01*
X274100D01*
X274041D01*
X273981D01*
X273921D01*
X273862D01*
X273802D01*
X273742D01*
X273683D01*
X273623D01*
X273564D01*
X273504D01*
X273444D01*
X273385D01*
X273325D01*
X273266D01*
X273206D01*
X273146D01*
X273087D01*
X273027D01*
X272967D01*
X272908D01*
X272848D01*
X272789D01*
X272729D01*
X272669D01*
X272610D01*
X272550D01*
X272490D01*
X272431D01*
X272371D01*
X272312D01*
X272252D01*
X272192D01*
X272133D01*
X272073D01*
X272013D01*
X271954D01*
X271894D01*
X271835D01*
X271775D01*
X271715D01*
X271656D01*
X271596D01*
X271537D01*
X271477D01*
X271417D01*
X271358D01*
X271298D01*
X271238D01*
X271179D01*
X271119D01*
X271060D01*
X271000D01*
X270940D01*
X270881D01*
X270821D01*
X270761D01*
X270702D01*
X270642D01*
X270583D01*
X270523D01*
X270463D01*
X270404D01*
X270344D01*
X270285D01*
X270225D01*
X270165D01*
X270106D01*
X270046D01*
X269987D01*
X269927D01*
X269867D01*
X269808D01*
X269748D01*
X269688D01*
X269629D01*
X269569D01*
X269510D01*
X269450D01*
X269390D01*
X269331D01*
X269271D01*
X269212D01*
X269152D01*
X269092D01*
X269033D01*
X268973D01*
X268913D01*
X268854D01*
X268794D01*
X268735D01*
X268675D01*
X268615D01*
X268556D01*
X268496D01*
X268436D01*
X268377D01*
X268317D01*
X268258D01*
X268198D01*
X268138D01*
X268079D01*
X268019D01*
X267959D01*
X267900D01*
X267840D01*
X267781D01*
X267721D01*
X267661D01*
X267602D01*
X267542D01*
X267483D01*
X267423D01*
X267363D01*
X267304D01*
X267244D01*
X267184D01*
X267125D01*
X267065D01*
X267006D01*
X266946D01*
X266886D01*
X266827D01*
X266767D01*
X266707D01*
X266648D01*
X266588D01*
X266529D01*
X266469D01*
X266409D01*
X266350D01*
X266290D01*
X266231D01*
X266171D01*
X266111D01*
X266052D01*
X265992D01*
X265932D01*
X265873D01*
X265813D01*
X265754D01*
X265694D01*
X265634D01*
X265575D01*
X265515D01*
X265456D01*
X265396D01*
X265336D01*
X265277D01*
X265217D01*
X265158D01*
X265098D01*
X265038D01*
X264979D01*
X264919D01*
X264859D01*
X264800D01*
X264740D01*
X264681D01*
X264621D01*
X264561D01*
X264502D01*
X264442D01*
X264383D01*
X264323D01*
X264263D01*
X264204D01*
X264144D01*
X264084D01*
X264025D01*
X263965D01*
X263906D01*
X263846D01*
X263786D01*
X263727D01*
X263667D01*
X263607D01*
X263548D01*
X263488D01*
X263429D01*
X263369D01*
X263309D01*
X263250D01*
X263190D01*
X263130D01*
X263071D01*
X263011D01*
X262952D01*
X262892D01*
X262832D01*
X262773D01*
X262713D01*
X262653D01*
X262594D01*
X262534D01*
X262475D01*
X262415D01*
X262355D01*
X262296D01*
X262236D01*
X262177D01*
X262117D01*
X262057D01*
X261998D01*
X261938D01*
X261878D01*
X261819D01*
X261759D01*
X261700D01*
X261640D01*
X261580D01*
X261521D01*
X261461D01*
X261402D01*
X261342D01*
X261282D01*
X261223D01*
X261163D01*
X261104D01*
X261044D01*
X260984D01*
X260925D01*
X260865D01*
X260805D01*
X260746D01*
X260686D01*
X260627D01*
X260567D01*
X260507D01*
X260448D01*
X260388D01*
X260329D01*
X260269D01*
X260209D01*
X260150D01*
X260090D01*
X260030D01*
X259971D01*
X259911D01*
X259852D01*
X259792D01*
X259732D01*
X259673D01*
X259613D01*
X259554D01*
X259494D01*
X259434D01*
X259375D01*
X259315D01*
X259255D01*
X259196D01*
X259136D01*
X259076D01*
X259017D01*
X258957D01*
X258898D01*
X258838D01*
X258778D01*
X258719D01*
X258659D01*
X258600D01*
X258540D01*
X258480D01*
X258421D01*
X258361D01*
X258301D01*
X258242D01*
X258182D01*
X258123D01*
X258063D01*
X258003D01*
X257944D01*
X257884D01*
X257824D01*
X257765D01*
X257705D01*
X257646D01*
X257586D01*
X257526D01*
X257467D01*
X257407D01*
X257348D01*
X257288D01*
X257228D01*
X257169D01*
X257109D01*
X257049D01*
X256990D01*
X256930D01*
X256871D01*
X256811D01*
X256751D01*
X256692D01*
X256632D01*
X256573D01*
X256513D01*
X256453D01*
X256394D01*
X256334D01*
X256275D01*
X256215D01*
X256155D01*
X256096D01*
X256036D01*
X255976D01*
X255917D01*
X255857D01*
X255798D01*
X255738D01*
X255678D01*
X255619D01*
X255559D01*
X255500D01*
X255440D01*
X255380D01*
X255321D01*
X255261D01*
X255201D01*
X255142D01*
X255082D01*
X255023D01*
X254963D01*
X254903D01*
X254844D01*
X254784D01*
X254724D01*
X254665D01*
X254605D01*
X254546D01*
X254486D01*
X254426D01*
X254367D01*
X254307D01*
X254247D01*
X254188D01*
X254128D01*
X254069D01*
X254009D01*
X253949D01*
X253890D01*
X253830D01*
X253771D01*
X253711D01*
X253651D01*
X253592D01*
X253532D01*
X253472D01*
X253413D01*
X253353D01*
X253294D01*
X253234D01*
X253174D01*
X253115D01*
X253055D01*
X252995D01*
Y134964D01*
X253055D01*
D02*
G37*
G36*
X173886Y153931D02*
Y153034D01*
X172527Y153524D01*
Y149399D01*
X171491D01*
Y154782D01*
X171546D01*
X173886Y153931D01*
D02*
G37*
G36*
X177327Y149399D02*
X176273D01*
X174636Y154782D01*
X175783D01*
X176800Y150897D01*
X177808Y154782D01*
X178955D01*
X177327Y149399D01*
D02*
G37*
G36*
X167837Y150657D02*
X167929Y150638D01*
X167966Y150629D01*
X167985Y150620D01*
X168003Y150610D01*
X168013D01*
X168105Y150574D01*
X168170Y150527D01*
X168216Y150490D01*
X168235Y150472D01*
X168299Y150398D01*
X168346Y150324D01*
X168373Y150268D01*
X168383Y150259D01*
Y150250D01*
X168410Y150157D01*
X168420Y150074D01*
X168429Y150037D01*
Y150019D01*
Y150000D01*
Y149991D01*
X168420Y149889D01*
X168401Y149806D01*
Y149769D01*
X168392Y149741D01*
X168383Y149732D01*
Y149723D01*
X168336Y149639D01*
X168290Y149574D01*
X168253Y149528D01*
X168235Y149510D01*
X168161Y149454D01*
X168087Y149417D01*
X168031Y149390D01*
X168022Y149380D01*
X168013D01*
X167911Y149353D01*
X167818Y149334D01*
X167772Y149325D01*
X167717D01*
X167596Y149334D01*
X167504Y149353D01*
X167467Y149362D01*
X167439Y149371D01*
X167430Y149380D01*
X167421D01*
X167328Y149417D01*
X167254Y149463D01*
X167208Y149501D01*
X167189Y149510D01*
X167125Y149584D01*
X167088Y149648D01*
X167060Y149704D01*
X167051Y149713D01*
Y149723D01*
X167014Y149815D01*
X167004Y149908D01*
X166995Y149944D01*
Y149963D01*
Y149981D01*
Y149991D01*
X167004Y150092D01*
X167023Y150176D01*
X167041Y150231D01*
X167051Y150241D01*
Y150250D01*
X167088Y150342D01*
X167134Y150407D01*
X167171Y150453D01*
X167189Y150472D01*
X167263Y150537D01*
X167337Y150574D01*
X167393Y150601D01*
X167411Y150610D01*
X167421D01*
X167522Y150647D01*
X167615Y150657D01*
X167661Y150666D01*
X167717D01*
X167837Y150657D01*
D02*
G37*
G36*
X163323Y154847D02*
X163462Y154838D01*
X163582Y154810D01*
X163693Y154791D01*
X163785Y154764D01*
X163850Y154736D01*
X163887Y154727D01*
X163906Y154718D01*
X164026Y154662D01*
X164128Y154597D01*
X164220Y154533D01*
X164303Y154468D01*
X164368Y154412D01*
X164424Y154366D01*
X164451Y154329D01*
X164461Y154320D01*
X164535Y154218D01*
X164609Y154107D01*
X164664Y153996D01*
X164710Y153885D01*
X164757Y153793D01*
X164784Y153718D01*
X164794Y153672D01*
X164803Y153663D01*
Y153654D01*
X164840Y153497D01*
X164868Y153339D01*
X164895Y153182D01*
X164905Y153043D01*
X164914Y152914D01*
X164923Y152821D01*
Y152784D01*
Y152757D01*
Y152738D01*
Y152729D01*
Y151443D01*
X164914Y151258D01*
X164905Y151082D01*
X164886Y150925D01*
X164858Y150795D01*
X164840Y150684D01*
X164821Y150601D01*
X164812Y150546D01*
X164803Y150537D01*
Y150527D01*
X164747Y150389D01*
X164692Y150259D01*
X164636Y150139D01*
X164581Y150046D01*
X164525Y149963D01*
X164488Y149908D01*
X164461Y149871D01*
X164451Y149861D01*
X164359Y149769D01*
X164266Y149686D01*
X164174Y149611D01*
X164091Y149556D01*
X164007Y149510D01*
X163952Y149482D01*
X163915Y149463D01*
X163896Y149454D01*
X163776Y149408D01*
X163647Y149380D01*
X163526Y149353D01*
X163406Y149343D01*
X163314Y149334D01*
X163230Y149325D01*
X163166D01*
X163018Y149334D01*
X162879Y149343D01*
X162759Y149362D01*
X162648Y149390D01*
X162555Y149417D01*
X162490Y149436D01*
X162453Y149445D01*
X162435Y149454D01*
X162315Y149510D01*
X162213Y149574D01*
X162120Y149648D01*
X162037Y149713D01*
X161972Y149769D01*
X161926Y149815D01*
X161898Y149852D01*
X161889Y149861D01*
X161806Y149963D01*
X161732Y150083D01*
X161676Y150194D01*
X161630Y150296D01*
X161584Y150389D01*
X161556Y150462D01*
X161547Y150509D01*
X161538Y150527D01*
X161501Y150684D01*
X161464Y150842D01*
X161445Y150990D01*
X161436Y151138D01*
X161427Y151258D01*
X161417Y151360D01*
Y151397D01*
Y151425D01*
Y151434D01*
Y151443D01*
Y152729D01*
X161427Y152923D01*
X161436Y153099D01*
X161454Y153256D01*
X161473Y153385D01*
X161501Y153497D01*
X161519Y153580D01*
X161528Y153635D01*
X161538Y153654D01*
X161584Y153793D01*
X161639Y153922D01*
X161704Y154042D01*
X161760Y154135D01*
X161806Y154218D01*
X161852Y154273D01*
X161880Y154311D01*
X161889Y154320D01*
X161982Y154412D01*
X162074Y154496D01*
X162167Y154560D01*
X162250Y154616D01*
X162333Y154662D01*
X162389Y154690D01*
X162426Y154708D01*
X162444Y154718D01*
X162564Y154764D01*
X162694Y154801D01*
X162814Y154819D01*
X162934Y154838D01*
X163027Y154847D01*
X163110Y154856D01*
X163175D01*
X163323Y154847D01*
D02*
G37*
G36*
X177133Y148239D02*
X177290Y148220D01*
X177429Y148193D01*
X177559Y148165D01*
X177660Y148128D01*
X177734Y148100D01*
X177781Y148082D01*
X177799Y148072D01*
X177929Y147998D01*
X178049Y147924D01*
X178160Y147841D01*
X178252Y147758D01*
X178326Y147684D01*
X178382Y147628D01*
X178419Y147591D01*
X178428Y147573D01*
X178521Y147452D01*
X178595Y147323D01*
X178669Y147194D01*
X178724Y147073D01*
X178770Y146971D01*
X178798Y146888D01*
X178817Y146833D01*
X178826Y146824D01*
Y146814D01*
X178872Y146648D01*
X178909Y146472D01*
X178928Y146306D01*
X178946Y146158D01*
X178955Y146028D01*
X178965Y145926D01*
Y145889D01*
Y145861D01*
Y145843D01*
Y145834D01*
Y145112D01*
X178955Y144918D01*
X178946Y144733D01*
X178928Y144567D01*
X178900Y144419D01*
X178872Y144298D01*
X178854Y144206D01*
X178844Y144178D01*
Y144150D01*
X178835Y144141D01*
Y144132D01*
X178780Y143974D01*
X178715Y143826D01*
X178650Y143697D01*
X178585Y143586D01*
X178530Y143493D01*
X178484Y143429D01*
X178456Y143392D01*
X178447Y143373D01*
X178345Y143262D01*
X178243Y143160D01*
X178141Y143077D01*
X178040Y143012D01*
X177956Y142957D01*
X177892Y142920D01*
X177845Y142892D01*
X177827Y142883D01*
X177688Y142827D01*
X177540Y142790D01*
X177392Y142754D01*
X177263Y142735D01*
X177152Y142726D01*
X177059Y142717D01*
X176976D01*
X176819Y142726D01*
X176680Y142735D01*
X176550Y142754D01*
X176439Y142781D01*
X176338Y142800D01*
X176273Y142818D01*
X176227Y142827D01*
X176208Y142837D01*
X176079Y142883D01*
X175968Y142938D01*
X175866Y142994D01*
X175773Y143050D01*
X175709Y143105D01*
X175653Y143142D01*
X175616Y143170D01*
X175607Y143179D01*
X175514Y143272D01*
X175440Y143364D01*
X175366Y143456D01*
X175311Y143540D01*
X175265Y143623D01*
X175237Y143678D01*
X175218Y143716D01*
X175209Y143734D01*
X175163Y143863D01*
X175117Y143993D01*
X175089Y144113D01*
X175061Y144234D01*
X175052Y144326D01*
X175043Y144409D01*
X175033Y144456D01*
Y144474D01*
X176069D01*
X176088Y144307D01*
X176125Y144159D01*
X176162Y144039D01*
X176217Y143938D01*
X176264Y143863D01*
X176301Y143808D01*
X176328Y143780D01*
X176338Y143771D01*
X176430Y143697D01*
X176532Y143651D01*
X176643Y143614D01*
X176745Y143586D01*
X176837Y143568D01*
X176911Y143558D01*
X176976D01*
X177142Y143577D01*
X177290Y143614D01*
X177420Y143678D01*
X177512Y143753D01*
X177596Y143817D01*
X177642Y143882D01*
X177679Y143919D01*
X177688Y143938D01*
X177725Y144011D01*
X177762Y144095D01*
X177818Y144280D01*
X177855Y144474D01*
X177882Y144668D01*
X177901Y144844D01*
Y144918D01*
X177910Y144983D01*
Y145038D01*
Y145075D01*
Y145103D01*
Y145112D01*
Y145843D01*
Y145982D01*
X177901Y146102D01*
X177892Y146213D01*
X177882Y146315D01*
X177873Y146389D01*
X177864Y146453D01*
X177855Y146491D01*
Y146500D01*
X177827Y146601D01*
X177808Y146703D01*
X177781Y146786D01*
X177753Y146861D01*
X177725Y146916D01*
X177707Y146953D01*
X177688Y146981D01*
Y146990D01*
X177642Y147064D01*
X177586Y147119D01*
X177540Y147175D01*
X177494Y147221D01*
X177457Y147249D01*
X177420Y147277D01*
X177401Y147295D01*
X177392D01*
X177318Y147332D01*
X177244Y147360D01*
X177105Y147397D01*
X177050D01*
X177004Y147406D01*
X176967D01*
X176809Y147397D01*
X176745Y147388D01*
X176689Y147379D01*
X176643Y147360D01*
X176606Y147351D01*
X176587Y147342D01*
X176578D01*
X176467Y147286D01*
X176375Y147221D01*
X176319Y147175D01*
X176310Y147166D01*
X176301Y147157D01*
X176227Y147055D01*
X176171Y146962D01*
X176153Y146916D01*
X176143Y146879D01*
X176134Y146861D01*
Y146851D01*
X176097Y146713D01*
X176079Y146574D01*
X176069Y146518D01*
X176060Y146472D01*
Y146444D01*
Y146435D01*
X175024D01*
X175043Y146592D01*
X175070Y146731D01*
X175098Y146861D01*
X175126Y146971D01*
X175163Y147064D01*
X175181Y147138D01*
X175200Y147175D01*
X175209Y147194D01*
X175265Y147314D01*
X175329Y147425D01*
X175394Y147527D01*
X175459Y147610D01*
X175514Y147675D01*
X175561Y147730D01*
X175588Y147758D01*
X175598Y147767D01*
X175690Y147850D01*
X175792Y147924D01*
X175884Y147980D01*
X175977Y148026D01*
X176060Y148072D01*
X176125Y148100D01*
X176162Y148109D01*
X176180Y148118D01*
X176310Y148165D01*
X176449Y148193D01*
X176578Y148220D01*
X176698Y148230D01*
X176809Y148239D01*
X176893Y148248D01*
X176967D01*
X177133Y148239D01*
D02*
G37*
G36*
X183321Y142790D02*
X181194D01*
X181046Y142809D01*
X180916Y142818D01*
X180796Y142837D01*
X180704Y142855D01*
X180630Y142865D01*
X180583Y142883D01*
X180565D01*
X180435Y142929D01*
X180315Y142975D01*
X180213Y143022D01*
X180121Y143068D01*
X180056Y143114D01*
X180001Y143151D01*
X179964Y143170D01*
X179954Y143179D01*
X179862Y143262D01*
X179788Y143345D01*
X179723Y143429D01*
X179668Y143503D01*
X179631Y143577D01*
X179603Y143632D01*
X179584Y143669D01*
X179575Y143678D01*
X179529Y143790D01*
X179492Y143910D01*
X179473Y144030D01*
X179455Y144132D01*
X179446Y144224D01*
X179436Y144298D01*
Y144344D01*
Y144363D01*
X179446Y144511D01*
X179455Y144576D01*
X179464Y144631D01*
X179473Y144687D01*
X179483Y144724D01*
X179492Y144742D01*
Y144752D01*
X179538Y144890D01*
X179594Y145001D01*
X179621Y145047D01*
X179640Y145075D01*
X179649Y145094D01*
X179658Y145103D01*
X179751Y145214D01*
X179843Y145307D01*
X179880Y145343D01*
X179917Y145371D01*
X179936Y145380D01*
X179945Y145390D01*
X180075Y145464D01*
X180204Y145519D01*
X180260Y145538D01*
X180306Y145556D01*
X180334Y145565D01*
X180343D01*
X180213Y145630D01*
X180093Y145704D01*
X179991Y145778D01*
X179917Y145852D01*
X179853Y145917D01*
X179806Y145973D01*
X179779Y146010D01*
X179769Y146019D01*
X179705Y146139D01*
X179649Y146259D01*
X179612Y146370D01*
X179594Y146472D01*
X179575Y146564D01*
X179566Y146639D01*
Y146685D01*
Y146703D01*
X179575Y146842D01*
X179584Y146962D01*
X179612Y147073D01*
X179631Y147166D01*
X179658Y147240D01*
X179686Y147304D01*
X179695Y147342D01*
X179705Y147351D01*
X179760Y147452D01*
X179825Y147545D01*
X179890Y147619D01*
X179954Y147684D01*
X180010Y147739D01*
X180056Y147776D01*
X180093Y147804D01*
X180102Y147813D01*
X180204Y147878D01*
X180306Y147933D01*
X180408Y147980D01*
X180500Y148017D01*
X180583Y148045D01*
X180648Y148063D01*
X180694Y148082D01*
X180713D01*
X180990Y148137D01*
X181120Y148155D01*
X181249Y148165D01*
X181351Y148174D01*
X183321D01*
Y142790D01*
D02*
G37*
G36*
X169622D02*
X168586D01*
Y144761D01*
X167781D01*
X167615Y144770D01*
X167467Y144779D01*
X167337Y144798D01*
X167217Y144825D01*
X167125Y144844D01*
X167051Y144862D01*
X167004Y144872D01*
X166986Y144881D01*
X166856Y144937D01*
X166736Y144992D01*
X166634Y145047D01*
X166542Y145103D01*
X166477Y145159D01*
X166422Y145195D01*
X166385Y145223D01*
X166375Y145232D01*
X166283Y145325D01*
X166209Y145417D01*
X166144Y145501D01*
X166089Y145584D01*
X166052Y145658D01*
X166024Y145713D01*
X166005Y145760D01*
X165996Y145769D01*
X165950Y145889D01*
X165913Y146000D01*
X165894Y146111D01*
X165876Y146213D01*
X165867Y146306D01*
X165857Y146370D01*
Y146416D01*
Y146435D01*
X165867Y146574D01*
X165876Y146713D01*
X165904Y146833D01*
X165922Y146934D01*
X165950Y147018D01*
X165978Y147082D01*
X165987Y147119D01*
X165996Y147138D01*
X166052Y147258D01*
X166107Y147360D01*
X166172Y147452D01*
X166237Y147536D01*
X166292Y147600D01*
X166338Y147647D01*
X166366Y147675D01*
X166375Y147684D01*
X166477Y147767D01*
X166579Y147841D01*
X166681Y147897D01*
X166773Y147952D01*
X166856Y147989D01*
X166921Y148017D01*
X166967Y148035D01*
X166986Y148045D01*
X167125Y148091D01*
X167254Y148118D01*
X167393Y148146D01*
X167513Y148155D01*
X167624Y148165D01*
X167707Y148174D01*
X169622D01*
Y142790D01*
D02*
G37*
G36*
X165173Y142790D02*
X163721D01*
X163536Y142800D01*
X163360Y142818D01*
X163203Y142846D01*
X163064Y142883D01*
X162944Y142911D01*
X162860Y142938D01*
X162805Y142957D01*
X162786Y142966D01*
X162629Y143040D01*
X162490Y143123D01*
X162370Y143207D01*
X162259Y143290D01*
X162176Y143364D01*
X162111Y143420D01*
X162065Y143456D01*
X162056Y143475D01*
X161945Y143605D01*
X161852Y143734D01*
X161769Y143863D01*
X161704Y143984D01*
X161649Y144095D01*
X161612Y144178D01*
X161593Y144234D01*
X161584Y144243D01*
Y144252D01*
X161528Y144428D01*
X161491Y144604D01*
X161454Y144770D01*
X161436Y144918D01*
X161427Y145057D01*
X161417Y145159D01*
Y145195D01*
Y145223D01*
Y145242D01*
Y145251D01*
Y145695D01*
X161427Y145898D01*
X161445Y146083D01*
X161473Y146250D01*
X161501Y146398D01*
X161528Y146518D01*
X161556Y146611D01*
X161565Y146648D01*
X161575Y146676D01*
X161584Y146685D01*
Y146694D01*
X161649Y146861D01*
X161732Y147009D01*
X161806Y147138D01*
X161889Y147249D01*
X161954Y147342D01*
X162009Y147415D01*
X162046Y147452D01*
X162065Y147471D01*
X162185Y147591D01*
X162305Y147693D01*
X162435Y147785D01*
X162546Y147860D01*
X162648Y147915D01*
X162731Y147952D01*
X162786Y147980D01*
X162796Y147989D01*
X162805D01*
X162971Y148054D01*
X163138Y148100D01*
X163304Y148128D01*
X163452Y148155D01*
X163582Y148165D01*
X163684Y148174D01*
X165173D01*
Y142790D01*
D02*
G37*
G36*
X185310Y144437D02*
X185319Y144307D01*
X185338Y144196D01*
X185356Y144150D01*
X185366Y144113D01*
X185375Y144095D01*
Y144086D01*
X185421Y143974D01*
X185477Y143882D01*
X185495Y143845D01*
X185514Y143817D01*
X185523Y143808D01*
X185532Y143799D01*
X185615Y143725D01*
X185699Y143669D01*
X185726Y143641D01*
X185754Y143623D01*
X185773Y143614D01*
X185782D01*
X185893Y143577D01*
X185995Y143558D01*
X186041Y143549D01*
X186106D01*
X186244Y143558D01*
X186365Y143577D01*
X186466Y143614D01*
X186550Y143651D01*
X186614Y143678D01*
X186661Y143716D01*
X186688Y143734D01*
X186698Y143743D01*
X186762Y143826D01*
X186809Y143928D01*
X186836Y144030D01*
X186855Y144132D01*
X186873Y144224D01*
X186883Y144298D01*
Y144354D01*
Y144363D01*
Y144372D01*
X187928D01*
X187919Y144215D01*
X187909Y144076D01*
X187891Y143956D01*
X187863Y143845D01*
X187835Y143753D01*
X187817Y143688D01*
X187808Y143651D01*
X187798Y143632D01*
X187743Y143521D01*
X187678Y143429D01*
X187613Y143336D01*
X187558Y143262D01*
X187502Y143207D01*
X187456Y143160D01*
X187428Y143133D01*
X187419Y143123D01*
X187327Y143050D01*
X187225Y142994D01*
X187132Y142938D01*
X187040Y142892D01*
X186966Y142865D01*
X186901Y142837D01*
X186864Y142827D01*
X186846Y142818D01*
X186716Y142781D01*
X186587Y142763D01*
X186466Y142744D01*
X186346Y142726D01*
X186254D01*
X186170Y142717D01*
X186106D01*
X185967Y142726D01*
X185837Y142735D01*
X185717Y142754D01*
X185606Y142781D01*
X185523Y142800D01*
X185449Y142818D01*
X185412Y142827D01*
X185393Y142837D01*
X185273Y142892D01*
X185162Y142948D01*
X185060Y143003D01*
X184977Y143059D01*
X184903Y143114D01*
X184857Y143151D01*
X184820Y143179D01*
X184811Y143188D01*
X184718Y143281D01*
X184644Y143373D01*
X184579Y143466D01*
X184524Y143549D01*
X184478Y143623D01*
X184450Y143678D01*
X184431Y143725D01*
X184422Y143734D01*
X184376Y143854D01*
X184339Y143984D01*
X184311Y144095D01*
X184293Y144206D01*
X184283Y144298D01*
X184274Y144372D01*
Y144419D01*
Y144437D01*
Y148174D01*
X185310D01*
Y144437D01*
D02*
G37*
G36*
X261034Y74536D02*
X259453D01*
X258824Y73972D01*
X261034Y72640D01*
Y71400D01*
X258037Y73278D01*
X255651Y71465D01*
Y72742D01*
X257464Y74046D01*
X258121Y74536D01*
X255651D01*
Y75581D01*
X261034D01*
Y74536D01*
D02*
G37*
G36*
X259323Y71095D02*
X259462Y71077D01*
X259591Y71058D01*
X259702Y71030D01*
X259804Y71003D01*
X259869Y70975D01*
X259915Y70965D01*
X259934Y70956D01*
X260063Y70891D01*
X260174Y70827D01*
X260285Y70762D01*
X260378Y70688D01*
X260452Y70633D01*
X260507Y70586D01*
X260544Y70549D01*
X260553Y70540D01*
X260646Y70438D01*
X260729Y70327D01*
X260794Y70216D01*
X260849Y70114D01*
X260896Y70022D01*
X260933Y69957D01*
X260951Y69911D01*
X260960Y69893D01*
X261007Y69745D01*
X261044Y69597D01*
X261071Y69458D01*
X261090Y69328D01*
X261099Y69217D01*
X261108Y69125D01*
Y69051D01*
X261099Y68838D01*
X261090Y68746D01*
X261071Y68662D01*
X261062Y68598D01*
X261053Y68551D01*
X261044Y68514D01*
Y68505D01*
X260997Y68320D01*
X260970Y68246D01*
X260942Y68172D01*
X260923Y68116D01*
X260905Y68080D01*
X260886Y68052D01*
Y68043D01*
X260803Y67895D01*
X260766Y67839D01*
X260729Y67784D01*
X260701Y67737D01*
X260674Y67710D01*
X260664Y67691D01*
X260655Y67682D01*
X260563Y67571D01*
X260470Y67497D01*
X260433Y67460D01*
X260415Y67441D01*
X260396Y67423D01*
X260387D01*
X259832Y67941D01*
X259906Y68006D01*
X259971Y68070D01*
X260017Y68126D01*
X260035Y68135D01*
Y68144D01*
X260091Y68237D01*
X260137Y68320D01*
X260156Y68357D01*
X260165Y68375D01*
X260174Y68394D01*
Y68403D01*
X260211Y68505D01*
X260239Y68598D01*
X260248Y68635D01*
Y68662D01*
X260257Y68681D01*
Y68690D01*
X260276Y68801D01*
X260285Y68894D01*
Y68986D01*
X260276Y69143D01*
X260267Y69208D01*
X260248Y69273D01*
X260239Y69319D01*
X260230Y69356D01*
X260220Y69384D01*
Y69393D01*
X260165Y69513D01*
X260100Y69615D01*
X260072Y69652D01*
X260054Y69680D01*
X260045Y69698D01*
X260035Y69708D01*
X259943Y69800D01*
X259850Y69874D01*
X259804Y69902D01*
X259776Y69920D01*
X259758Y69939D01*
X259749D01*
X259619Y69994D01*
X259490Y70031D01*
X259443Y70041D01*
X259406Y70050D01*
X259379Y70059D01*
X259369D01*
Y67339D01*
X258935D01*
X258768Y67349D01*
X258620Y67358D01*
X258481Y67377D01*
X258361Y67404D01*
X258269Y67432D01*
X258195Y67450D01*
X258148Y67460D01*
X258130Y67469D01*
X258000Y67515D01*
X257880Y67580D01*
X257778Y67636D01*
X257686Y67691D01*
X257612Y67747D01*
X257556Y67793D01*
X257519Y67821D01*
X257510Y67830D01*
X257418Y67922D01*
X257334Y68015D01*
X257270Y68116D01*
X257214Y68200D01*
X257168Y68283D01*
X257140Y68348D01*
X257122Y68385D01*
X257112Y68403D01*
X257066Y68533D01*
X257029Y68662D01*
X257001Y68792D01*
X256983Y68912D01*
X256974Y69014D01*
X256964Y69097D01*
Y69171D01*
X256974Y69319D01*
X256992Y69467D01*
X257011Y69597D01*
X257038Y69717D01*
X257075Y69809D01*
X257094Y69883D01*
X257112Y69929D01*
X257122Y69948D01*
X257186Y70078D01*
X257251Y70188D01*
X257325Y70300D01*
X257390Y70383D01*
X257455Y70457D01*
X257501Y70512D01*
X257538Y70549D01*
X257547Y70559D01*
X257649Y70651D01*
X257760Y70734D01*
X257871Y70799D01*
X257973Y70855D01*
X258056Y70901D01*
X258130Y70938D01*
X258176Y70956D01*
X258195Y70965D01*
X258343Y71012D01*
X258481Y71049D01*
X258620Y71067D01*
X258750Y71086D01*
X258861Y71095D01*
X258953Y71104D01*
X259009D01*
X259018D01*
X259027D01*
X259175D01*
X259323Y71095D01*
D02*
G37*
G36*
X257797Y65591D02*
X259619D01*
X259758Y65582D01*
X259887Y65573D01*
X260008Y65554D01*
X260100Y65536D01*
X260183Y65517D01*
X260239Y65508D01*
X260285Y65490D01*
X260294D01*
X260396Y65443D01*
X260489Y65397D01*
X260572Y65351D01*
X260637Y65304D01*
X260692Y65268D01*
X260729Y65231D01*
X260757Y65212D01*
X260766Y65203D01*
X260877Y65046D01*
X260960Y64898D01*
X260988Y64833D01*
X261007Y64786D01*
X261025Y64749D01*
Y64740D01*
X261071Y64537D01*
X261090Y64435D01*
X261099Y64343D01*
Y64259D01*
X261108Y64195D01*
Y64019D01*
X261099Y63908D01*
Y63862D01*
X261090Y63824D01*
Y63797D01*
X261071Y63667D01*
X261062Y63565D01*
X261053Y63519D01*
X261044Y63491D01*
Y63464D01*
X261025Y63344D01*
X261007Y63242D01*
X260997Y63205D01*
X260988Y63177D01*
X260979Y63159D01*
Y63149D01*
X260942Y63048D01*
X260905Y62964D01*
X260877Y62918D01*
X260868Y62900D01*
X260165Y63001D01*
X260174Y63057D01*
X260193Y63112D01*
X260202Y63149D01*
Y63168D01*
X260211Y63242D01*
X260230Y63307D01*
X260239Y63362D01*
Y63381D01*
X260248Y63464D01*
X260257Y63538D01*
X260267Y63603D01*
Y63621D01*
X260276Y63704D01*
Y63852D01*
X260267Y63973D01*
X260257Y64065D01*
X260248Y64102D01*
Y64121D01*
X260239Y64139D01*
Y64148D01*
X260202Y64241D01*
X260165Y64306D01*
X260128Y64352D01*
X260119Y64370D01*
X260045Y64435D01*
X259961Y64481D01*
X259906Y64509D01*
X259887Y64518D01*
X259878D01*
X259758Y64546D01*
X259638Y64555D01*
X259591Y64565D01*
X259554D01*
X259527D01*
X259517D01*
X257797D01*
Y63075D01*
X257038D01*
Y64565D01*
X256058D01*
Y65591D01*
X257038D01*
Y66507D01*
X257797D01*
Y65591D01*
D02*
G37*
G36*
X260008Y62002D02*
X260100Y61993D01*
X260183Y61975D01*
X260248Y61956D01*
X260313Y61937D01*
X260359Y61928D01*
X260387Y61910D01*
X260396D01*
X260544Y61817D01*
X260609Y61771D01*
X260664Y61716D01*
X260711Y61678D01*
X260748Y61642D01*
X260766Y61623D01*
X260775Y61614D01*
X260877Y61466D01*
X260960Y61327D01*
X260988Y61272D01*
X261007Y61216D01*
X261025Y61188D01*
Y61179D01*
X261071Y60975D01*
X261090Y60883D01*
X261099Y60790D01*
Y60716D01*
X261108Y60661D01*
Y60606D01*
X261099Y60476D01*
X261090Y60365D01*
X261081Y60319D01*
Y60291D01*
X261071Y60273D01*
Y60263D01*
X261044Y60143D01*
X261007Y60050D01*
X260997Y60014D01*
X260988Y59986D01*
X260979Y59977D01*
Y59967D01*
X260933Y59865D01*
X260886Y59791D01*
X260849Y59736D01*
X260840Y59727D01*
Y59718D01*
X260775Y59634D01*
X260720Y59570D01*
X260683Y59533D01*
X260664Y59514D01*
X260738Y59496D01*
X260803Y59486D01*
X260849Y59477D01*
X260868D01*
X260933Y59459D01*
X260988Y59431D01*
X261025Y59422D01*
X261034Y59412D01*
Y58367D01*
X260979D01*
X260859Y58413D01*
X260738Y58450D01*
X260692Y58469D01*
X260655Y58478D01*
X260627Y58487D01*
X260618D01*
X260535Y58497D01*
X260442Y58506D01*
X260359Y58515D01*
X260267D01*
X260193Y58524D01*
X260137D01*
X260100D01*
X260082D01*
X258361D01*
X258241Y58534D01*
X258121Y58543D01*
X258019Y58561D01*
X257936Y58589D01*
X257862Y58617D01*
X257806Y58635D01*
X257769Y58645D01*
X257760Y58654D01*
X257667Y58709D01*
X257575Y58765D01*
X257501Y58820D01*
X257436Y58885D01*
X257390Y58931D01*
X257344Y58978D01*
X257325Y59005D01*
X257316Y59014D01*
X257205Y59200D01*
X257159Y59292D01*
X257122Y59375D01*
X257094Y59449D01*
X257075Y59505D01*
X257057Y59542D01*
Y59560D01*
X257001Y59791D01*
X256983Y59912D01*
X256974Y60014D01*
X256964Y60106D01*
Y60384D01*
X256983Y60513D01*
X256992Y60633D01*
X257011Y60744D01*
X257029Y60827D01*
X257048Y60892D01*
X257057Y60929D01*
X257066Y60948D01*
X257103Y61059D01*
X257149Y61161D01*
X257196Y61253D01*
X257242Y61336D01*
X257279Y61401D01*
X257316Y61447D01*
X257334Y61475D01*
X257344Y61484D01*
X257408Y61558D01*
X257473Y61623D01*
X257538Y61678D01*
X257603Y61725D01*
X257658Y61762D01*
X257704Y61790D01*
X257732Y61799D01*
X257741Y61808D01*
X257825Y61845D01*
X257917Y61873D01*
X258000Y61891D01*
X258074Y61901D01*
X258139Y61910D01*
X258185Y61919D01*
X258222D01*
X258232D01*
Y60892D01*
X258148Y60883D01*
X258074Y60874D01*
X258019Y60846D01*
X257963Y60818D01*
X257926Y60800D01*
X257899Y60772D01*
X257880Y60763D01*
X257871Y60754D01*
X257825Y60689D01*
X257788Y60615D01*
X257769Y60541D01*
X257751Y60467D01*
X257741Y60402D01*
X257732Y60347D01*
Y60291D01*
X257741Y60162D01*
X257760Y60050D01*
X257788Y59958D01*
X257815Y59884D01*
X257843Y59819D01*
X257871Y59782D01*
X257889Y59755D01*
X257899Y59745D01*
X257963Y59681D01*
X258037Y59634D01*
X258121Y59597D01*
X258195Y59579D01*
X258259Y59560D01*
X258315Y59551D01*
X258352D01*
X258361D01*
X258592D01*
Y60291D01*
X258611Y60458D01*
X258620Y60606D01*
X258648Y60744D01*
X258676Y60874D01*
X258703Y60985D01*
X258731Y61096D01*
X258768Y61188D01*
X258805Y61272D01*
X258833Y61336D01*
X258861Y61401D01*
X258888Y61447D01*
X258907Y61494D01*
X258925Y61521D01*
X258944Y61531D01*
Y61540D01*
X259009Y61623D01*
X259083Y61697D01*
X259157Y61762D01*
X259240Y61808D01*
X259397Y61901D01*
X259554Y61956D01*
X259702Y61984D01*
X259758Y61993D01*
X259813Y62002D01*
X259850Y62011D01*
X259887D01*
X259906D01*
X259915D01*
X260008Y62002D01*
D02*
G37*
G36*
X261034Y56341D02*
X258195D01*
X258074Y56239D01*
X257982Y56147D01*
X257954Y56101D01*
X257926Y56064D01*
X257908Y56045D01*
Y56036D01*
X257871Y55962D01*
X257843Y55888D01*
X257806Y55740D01*
Y55685D01*
X257797Y55638D01*
Y55592D01*
X257806Y55472D01*
X257815Y55370D01*
X257825Y55333D01*
Y55305D01*
X257834Y55287D01*
Y55278D01*
X257871Y55176D01*
X257908Y55102D01*
X257945Y55056D01*
X257963Y55037D01*
X258037Y54972D01*
X258111Y54917D01*
X258148Y54898D01*
X258176Y54889D01*
X258195Y54880D01*
X258204D01*
X258324Y54843D01*
X258454Y54834D01*
X258509Y54824D01*
X258555D01*
X258583D01*
X258592D01*
X261034D01*
Y53798D01*
X258574D01*
X258417D01*
X258278Y53816D01*
X258148Y53825D01*
X258037Y53844D01*
X257954Y53862D01*
X257889Y53881D01*
X257843Y53890D01*
X257834Y53899D01*
X257723Y53936D01*
X257630Y53983D01*
X257538Y54038D01*
X257473Y54084D01*
X257408Y54121D01*
X257371Y54158D01*
X257344Y54177D01*
X257334Y54186D01*
X257270Y54251D01*
X257205Y54325D01*
X257159Y54399D01*
X257122Y54473D01*
X257094Y54528D01*
X257075Y54575D01*
X257057Y54611D01*
Y54621D01*
X257001Y54815D01*
X256983Y54908D01*
X256974Y54991D01*
X256964Y55065D01*
Y55176D01*
X256974Y55314D01*
X256992Y55435D01*
X257020Y55555D01*
X257048Y55648D01*
X257075Y55731D01*
X257103Y55796D01*
X257122Y55833D01*
X257131Y55851D01*
X257196Y55962D01*
X257270Y56064D01*
X257344Y56156D01*
X257418Y56230D01*
X257492Y56295D01*
X257547Y56341D01*
X257584Y56369D01*
X257593Y56378D01*
X257038Y56434D01*
Y57368D01*
X261034D01*
Y56341D01*
D02*
G37*
G36*
Y46897D02*
X261025Y46712D01*
X261007Y46536D01*
X260979Y46379D01*
X260942Y46240D01*
X260914Y46120D01*
X260886Y46037D01*
X260868Y45981D01*
X260859Y45963D01*
X260785Y45805D01*
X260701Y45667D01*
X260618Y45547D01*
X260535Y45436D01*
X260461Y45352D01*
X260405Y45287D01*
X260368Y45241D01*
X260350Y45232D01*
X260220Y45121D01*
X260091Y45029D01*
X259961Y44945D01*
X259841Y44881D01*
X259730Y44825D01*
X259647Y44788D01*
X259591Y44769D01*
X259582Y44760D01*
X259573D01*
X259397Y44705D01*
X259221Y44668D01*
X259055Y44631D01*
X258907Y44612D01*
X258768Y44603D01*
X258666Y44594D01*
X258629D01*
X258602D01*
X258583D01*
X258574D01*
X258130D01*
X257926Y44603D01*
X257741Y44622D01*
X257575Y44649D01*
X257427Y44677D01*
X257307Y44705D01*
X257214Y44732D01*
X257177Y44742D01*
X257149Y44751D01*
X257140Y44760D01*
X257131D01*
X256964Y44825D01*
X256816Y44908D01*
X256687Y44982D01*
X256576Y45066D01*
X256483Y45130D01*
X256409Y45186D01*
X256372Y45223D01*
X256354Y45241D01*
X256234Y45362D01*
X256132Y45482D01*
X256039Y45611D01*
X255965Y45722D01*
X255910Y45824D01*
X255873Y45907D01*
X255845Y45963D01*
X255836Y45972D01*
Y45981D01*
X255771Y46148D01*
X255725Y46314D01*
X255697Y46481D01*
X255669Y46629D01*
X255660Y46758D01*
X255651Y46860D01*
Y48349D01*
X261034D01*
Y46897D01*
D02*
G37*
G36*
X263943Y42938D02*
X263794Y42929D01*
X263656Y42910D01*
X263545Y42873D01*
X263452Y42836D01*
X263378Y42799D01*
X263332Y42762D01*
X263295Y42744D01*
X263286Y42735D01*
X263203Y42642D01*
X263147Y42540D01*
X263101Y42439D01*
X263073Y42337D01*
X263054Y42244D01*
X263045Y42170D01*
Y42096D01*
X263054Y41985D01*
X263073Y41893D01*
X263082Y41856D01*
X263091Y41828D01*
X263101Y41819D01*
Y41810D01*
X263147Y41717D01*
X263193Y41643D01*
X263230Y41597D01*
X263240Y41578D01*
X263249D01*
X263323Y41513D01*
X263406Y41477D01*
X263461Y41449D01*
X263480Y41440D01*
X263489D01*
X263600Y41403D01*
X263702Y41393D01*
X263739Y41384D01*
X263776D01*
X263794D01*
X263804D01*
X263896Y41393D01*
X263980Y41403D01*
X264044Y41412D01*
X264054Y41421D01*
X264063D01*
X264164Y41458D01*
X264248Y41495D01*
X264285Y41523D01*
X264313Y41532D01*
X264331Y41550D01*
X264340D01*
X264451Y41625D01*
X264562Y41689D01*
X264609Y41726D01*
X264646Y41745D01*
X264664Y41763D01*
X264673Y41773D01*
X264812Y41884D01*
X264942Y41995D01*
X264988Y42041D01*
X265034Y42078D01*
X265062Y42105D01*
X265071Y42115D01*
X266949Y43863D01*
X267642D01*
Y40181D01*
X266819D01*
Y42549D01*
X265746Y41532D01*
X265552Y41347D01*
X265469Y41273D01*
X265395Y41199D01*
X265330Y41144D01*
X265275Y41097D01*
X265247Y41069D01*
X265237Y41060D01*
X265053Y40912D01*
X264979Y40848D01*
X264904Y40792D01*
X264840Y40755D01*
X264793Y40718D01*
X264766Y40699D01*
X264756Y40690D01*
X264581Y40589D01*
X264497Y40542D01*
X264423Y40515D01*
X264368Y40487D01*
X264313Y40468D01*
X264285Y40450D01*
X264276D01*
X264090Y40404D01*
X264007Y40385D01*
X263924Y40376D01*
X263859Y40367D01*
X263813D01*
X263776D01*
X263767D01*
X263637D01*
X263517Y40385D01*
X263406Y40404D01*
X263314Y40422D01*
X263240Y40441D01*
X263175Y40459D01*
X263138Y40468D01*
X263128Y40478D01*
X263018Y40524D01*
X262925Y40570D01*
X262842Y40626D01*
X262768Y40681D01*
X262712Y40727D01*
X262666Y40764D01*
X262638Y40792D01*
X262629Y40801D01*
X262555Y40885D01*
X262490Y40977D01*
X262435Y41060D01*
X262388Y41153D01*
X262351Y41227D01*
X262324Y41282D01*
X262315Y41319D01*
X262305Y41338D01*
X262268Y41458D01*
X262231Y41578D01*
X262213Y41708D01*
X262204Y41819D01*
X262194Y41911D01*
X262185Y41995D01*
Y42059D01*
X262194Y42217D01*
X262204Y42365D01*
X262231Y42503D01*
X262250Y42614D01*
X262278Y42707D01*
X262305Y42781D01*
X262315Y42827D01*
X262324Y42845D01*
X262379Y42975D01*
X262444Y43086D01*
X262509Y43188D01*
X262564Y43280D01*
X262620Y43345D01*
X262666Y43400D01*
X262694Y43437D01*
X262703Y43447D01*
X262795Y43539D01*
X262888Y43613D01*
X262990Y43678D01*
X263073Y43734D01*
X263156Y43780D01*
X263212Y43808D01*
X263249Y43826D01*
X263267Y43835D01*
X263387Y43881D01*
X263508Y43909D01*
X263619Y43937D01*
X263720Y43946D01*
X263813Y43955D01*
X263878Y43965D01*
X263924D01*
X263943D01*
Y42938D01*
D02*
G37*
G36*
X259323Y43845D02*
X259462Y43826D01*
X259591Y43808D01*
X259702Y43780D01*
X259804Y43752D01*
X259869Y43724D01*
X259915Y43715D01*
X259934Y43706D01*
X260063Y43641D01*
X260174Y43576D01*
X260285Y43512D01*
X260378Y43437D01*
X260452Y43382D01*
X260507Y43336D01*
X260544Y43299D01*
X260553Y43290D01*
X260646Y43188D01*
X260729Y43077D01*
X260794Y42966D01*
X260849Y42864D01*
X260896Y42772D01*
X260933Y42707D01*
X260951Y42661D01*
X260960Y42642D01*
X261007Y42494D01*
X261044Y42346D01*
X261071Y42207D01*
X261090Y42078D01*
X261099Y41967D01*
X261108Y41874D01*
Y41800D01*
X261099Y41587D01*
X261090Y41495D01*
X261071Y41412D01*
X261062Y41347D01*
X261053Y41301D01*
X261044Y41264D01*
Y41255D01*
X260997Y41069D01*
X260970Y40995D01*
X260942Y40922D01*
X260923Y40866D01*
X260905Y40829D01*
X260886Y40801D01*
Y40792D01*
X260803Y40644D01*
X260766Y40589D01*
X260729Y40533D01*
X260701Y40487D01*
X260674Y40459D01*
X260664Y40441D01*
X260655Y40431D01*
X260563Y40320D01*
X260470Y40246D01*
X260433Y40209D01*
X260415Y40191D01*
X260396Y40172D01*
X260387D01*
X259832Y40690D01*
X259906Y40755D01*
X259971Y40820D01*
X260017Y40875D01*
X260035Y40885D01*
Y40894D01*
X260091Y40986D01*
X260137Y41069D01*
X260156Y41107D01*
X260165Y41125D01*
X260174Y41144D01*
Y41153D01*
X260211Y41255D01*
X260239Y41347D01*
X260248Y41384D01*
Y41412D01*
X260257Y41430D01*
Y41440D01*
X260276Y41550D01*
X260285Y41643D01*
Y41736D01*
X260276Y41893D01*
X260267Y41958D01*
X260248Y42022D01*
X260239Y42068D01*
X260230Y42105D01*
X260220Y42133D01*
Y42143D01*
X260165Y42263D01*
X260100Y42365D01*
X260072Y42401D01*
X260054Y42429D01*
X260045Y42448D01*
X260035Y42457D01*
X259943Y42549D01*
X259850Y42624D01*
X259804Y42651D01*
X259776Y42670D01*
X259758Y42688D01*
X259749D01*
X259619Y42744D01*
X259490Y42781D01*
X259443Y42790D01*
X259406Y42799D01*
X259379Y42809D01*
X259369D01*
Y40089D01*
X258935D01*
X258768Y40098D01*
X258620Y40108D01*
X258481Y40126D01*
X258361Y40154D01*
X258269Y40181D01*
X258195Y40200D01*
X258148Y40209D01*
X258130Y40218D01*
X258000Y40265D01*
X257880Y40330D01*
X257778Y40385D01*
X257686Y40441D01*
X257612Y40496D01*
X257556Y40542D01*
X257519Y40570D01*
X257510Y40579D01*
X257418Y40672D01*
X257334Y40764D01*
X257270Y40866D01*
X257214Y40949D01*
X257168Y41032D01*
X257140Y41097D01*
X257122Y41134D01*
X257112Y41153D01*
X257066Y41282D01*
X257029Y41412D01*
X257001Y41541D01*
X256983Y41662D01*
X256974Y41763D01*
X256964Y41847D01*
Y41921D01*
X256974Y42068D01*
X256992Y42217D01*
X257011Y42346D01*
X257038Y42466D01*
X257075Y42559D01*
X257094Y42633D01*
X257112Y42679D01*
X257122Y42698D01*
X257186Y42827D01*
X257251Y42938D01*
X257325Y43049D01*
X257390Y43132D01*
X257455Y43206D01*
X257501Y43262D01*
X257538Y43299D01*
X257547Y43308D01*
X257649Y43400D01*
X257760Y43484D01*
X257871Y43549D01*
X257973Y43604D01*
X258056Y43650D01*
X258130Y43687D01*
X258176Y43706D01*
X258195Y43715D01*
X258343Y43761D01*
X258481Y43798D01*
X258620Y43817D01*
X258750Y43835D01*
X258861Y43845D01*
X258953Y43854D01*
X259009D01*
X259018D01*
X259027D01*
X259175D01*
X259323Y43845D01*
D02*
G37*
G36*
X259860Y39266D02*
X259952Y39257D01*
X260035Y39238D01*
X260109Y39210D01*
X260165Y39192D01*
X260211Y39173D01*
X260248Y39164D01*
X260257Y39155D01*
X260341Y39109D01*
X260424Y39053D01*
X260498Y38988D01*
X260563Y38933D01*
X260618Y38886D01*
X260655Y38840D01*
X260683Y38813D01*
X260692Y38803D01*
X260757Y38711D01*
X260822Y38609D01*
X260868Y38517D01*
X260914Y38424D01*
X260951Y38341D01*
X260979Y38276D01*
X260988Y38239D01*
X260997Y38221D01*
X261034Y38091D01*
X261062Y37952D01*
X261081Y37813D01*
X261090Y37693D01*
X261099Y37582D01*
X261108Y37499D01*
Y37277D01*
X261099Y37129D01*
X261081Y37009D01*
X261062Y36898D01*
X261053Y36805D01*
X261034Y36731D01*
X261025Y36694D01*
Y36676D01*
X260988Y36555D01*
X260951Y36445D01*
X260905Y36352D01*
X260868Y36269D01*
X260831Y36204D01*
X260803Y36149D01*
X260785Y36121D01*
X260775Y36112D01*
X260711Y36028D01*
X260646Y35954D01*
X260581Y35899D01*
X260516Y35843D01*
X260470Y35806D01*
X260424Y35779D01*
X260396Y35760D01*
X260387Y35751D01*
X260304Y35705D01*
X260220Y35677D01*
X260137Y35649D01*
X260054Y35640D01*
X259989Y35631D01*
X259943Y35621D01*
X259906D01*
X259897D01*
X259795Y35631D01*
X259702Y35640D01*
X259619Y35658D01*
X259545Y35686D01*
X259490Y35714D01*
X259443Y35732D01*
X259416Y35742D01*
X259406Y35751D01*
X259258Y35862D01*
X259203Y35917D01*
X259147Y35973D01*
X259101Y36028D01*
X259073Y36065D01*
X259055Y36093D01*
X259046Y36102D01*
X258944Y36278D01*
X258907Y36371D01*
X258870Y36454D01*
X258842Y36528D01*
X258824Y36583D01*
X258805Y36620D01*
Y36639D01*
X258740Y36879D01*
X258722Y36990D01*
X258694Y37092D01*
X258676Y37185D01*
X258666Y37249D01*
X258657Y37295D01*
Y37314D01*
X258639Y37407D01*
X258629Y37481D01*
X258611Y37555D01*
X258602Y37619D01*
X258592Y37666D01*
X258583Y37703D01*
X258574Y37721D01*
Y37730D01*
X258537Y37841D01*
X258500Y37915D01*
X258472Y37971D01*
X258463Y37980D01*
Y37989D01*
X258417Y38045D01*
X258370Y38091D01*
X258333Y38110D01*
X258324Y38119D01*
X258259Y38137D01*
X258213Y38147D01*
X258176Y38156D01*
X258158D01*
X258084Y38147D01*
X258028Y38128D01*
X257926Y38063D01*
X257889Y38026D01*
X257852Y37999D01*
X257843Y37980D01*
X257834Y37971D01*
X257788Y37897D01*
X257760Y37804D01*
X257723Y37629D01*
X257714Y37545D01*
X257704Y37481D01*
Y37425D01*
X257714Y37295D01*
X257732Y37175D01*
X257751Y37083D01*
X257778Y36999D01*
X257815Y36935D01*
X257834Y36898D01*
X257852Y36870D01*
X257862Y36861D01*
X257926Y36796D01*
X257991Y36750D01*
X258056Y36713D01*
X258111Y36694D01*
X258167Y36676D01*
X258213Y36667D01*
X258241D01*
X258250D01*
Y35640D01*
X258148Y35649D01*
X258056Y35658D01*
X257963Y35677D01*
X257889Y35695D01*
X257825Y35723D01*
X257778Y35742D01*
X257751Y35751D01*
X257741Y35760D01*
X257658Y35806D01*
X257575Y35862D01*
X257510Y35926D01*
X257445Y35982D01*
X257399Y36028D01*
X257362Y36075D01*
X257344Y36102D01*
X257334Y36112D01*
X257270Y36204D01*
X257214Y36297D01*
X257168Y36389D01*
X257131Y36481D01*
X257103Y36555D01*
X257085Y36620D01*
X257066Y36657D01*
Y36676D01*
X257029Y36805D01*
X257011Y36935D01*
X256992Y37055D01*
X256974Y37175D01*
Y37277D01*
X256964Y37351D01*
Y37573D01*
X256983Y37703D01*
X256992Y37832D01*
X257011Y37934D01*
X257029Y38026D01*
X257048Y38091D01*
X257057Y38128D01*
X257066Y38147D01*
X257103Y38258D01*
X257149Y38359D01*
X257196Y38452D01*
X257233Y38535D01*
X257270Y38600D01*
X257307Y38646D01*
X257325Y38674D01*
X257334Y38683D01*
X257399Y38757D01*
X257464Y38831D01*
X257529Y38886D01*
X257593Y38933D01*
X257649Y38979D01*
X257695Y39007D01*
X257723Y39016D01*
X257732Y39025D01*
X257815Y39062D01*
X257899Y39090D01*
X257982Y39118D01*
X258047Y39127D01*
X258111Y39136D01*
X258158Y39145D01*
X258195D01*
X258204D01*
X258296Y39136D01*
X258380Y39127D01*
X258454Y39109D01*
X258528Y39090D01*
X258583Y39072D01*
X258620Y39053D01*
X258648Y39035D01*
X258657D01*
X258796Y38933D01*
X258898Y38831D01*
X258944Y38785D01*
X258972Y38748D01*
X258990Y38720D01*
X258999Y38711D01*
X259101Y38544D01*
X259147Y38461D01*
X259184Y38378D01*
X259212Y38313D01*
X259240Y38258D01*
X259249Y38221D01*
X259258Y38211D01*
X259332Y37989D01*
X259360Y37878D01*
X259388Y37776D01*
X259406Y37693D01*
X259425Y37619D01*
X259434Y37582D01*
Y37564D01*
X259453Y37462D01*
X259471Y37379D01*
X259490Y37295D01*
X259499Y37231D01*
X259517Y37185D01*
X259527Y37138D01*
X259536Y37120D01*
Y37111D01*
X259573Y36990D01*
X259610Y36889D01*
X259619Y36861D01*
X259638Y36833D01*
X259647Y36824D01*
Y36815D01*
X259693Y36741D01*
X259739Y36694D01*
X259776Y36676D01*
X259786Y36667D01*
X259841Y36639D01*
X259887Y36630D01*
X259924Y36620D01*
X259943D01*
X260008Y36630D01*
X260072Y36648D01*
X260128Y36685D01*
X260174Y36722D01*
X260211Y36759D01*
X260239Y36796D01*
X260248Y36815D01*
X260257Y36824D01*
X260294Y36907D01*
X260322Y36999D01*
X260359Y37185D01*
X260368Y37268D01*
X260378Y37332D01*
Y37397D01*
X260368Y37517D01*
X260359Y37619D01*
Y37666D01*
X260350Y37693D01*
Y37721D01*
X260313Y37832D01*
X260276Y37925D01*
X260267Y37962D01*
X260248Y37989D01*
X260239Y37999D01*
Y38008D01*
X260174Y38091D01*
X260119Y38156D01*
X260072Y38193D01*
X260054Y38211D01*
X259961Y38258D01*
X259869Y38276D01*
X259823Y38285D01*
X259795Y38295D01*
X259776D01*
X259767D01*
Y39275D01*
X259860Y39266D01*
D02*
G37*
G36*
X265783Y39155D02*
X265959Y39145D01*
X266116Y39127D01*
X266246Y39099D01*
X266357Y39081D01*
X266440Y39062D01*
X266495Y39053D01*
X266505Y39044D01*
X266514D01*
X266653Y38988D01*
X266782Y38933D01*
X266902Y38877D01*
X266995Y38822D01*
X267078Y38766D01*
X267134Y38729D01*
X267171Y38702D01*
X267180Y38692D01*
X267272Y38600D01*
X267356Y38507D01*
X267430Y38415D01*
X267485Y38331D01*
X267531Y38248D01*
X267559Y38193D01*
X267578Y38156D01*
X267587Y38137D01*
X267633Y38017D01*
X267661Y37887D01*
X267689Y37767D01*
X267698Y37647D01*
X267707Y37555D01*
X267717Y37471D01*
Y37407D01*
X267707Y37259D01*
X267698Y37120D01*
X267680Y36999D01*
X267652Y36889D01*
X267624Y36796D01*
X267605Y36731D01*
X267596Y36694D01*
X267587Y36676D01*
X267531Y36555D01*
X267467Y36454D01*
X267393Y36361D01*
X267328Y36278D01*
X267272Y36213D01*
X267226Y36167D01*
X267189Y36139D01*
X267180Y36130D01*
X267078Y36047D01*
X266958Y35973D01*
X266847Y35917D01*
X266745Y35871D01*
X266653Y35825D01*
X266579Y35797D01*
X266532Y35788D01*
X266514Y35779D01*
X266357Y35742D01*
X266199Y35705D01*
X266052Y35686D01*
X265903Y35677D01*
X265783Y35667D01*
X265682Y35658D01*
X265645D01*
X265617D01*
X265608D01*
X265598D01*
X264313D01*
X264118Y35667D01*
X263943Y35677D01*
X263785Y35695D01*
X263656Y35714D01*
X263545Y35742D01*
X263461Y35760D01*
X263406Y35769D01*
X263387Y35779D01*
X263249Y35825D01*
X263119Y35880D01*
X262999Y35945D01*
X262907Y36000D01*
X262823Y36047D01*
X262768Y36093D01*
X262731Y36121D01*
X262721Y36130D01*
X262629Y36223D01*
X262546Y36315D01*
X262481Y36408D01*
X262425Y36491D01*
X262379Y36574D01*
X262351Y36630D01*
X262333Y36667D01*
X262324Y36685D01*
X262278Y36805D01*
X262241Y36935D01*
X262222Y37055D01*
X262204Y37175D01*
X262194Y37268D01*
X262185Y37351D01*
Y37416D01*
X262194Y37564D01*
X262204Y37703D01*
X262231Y37823D01*
X262250Y37934D01*
X262278Y38026D01*
X262305Y38091D01*
X262315Y38128D01*
X262324Y38147D01*
X262379Y38267D01*
X262444Y38368D01*
X262509Y38461D01*
X262574Y38544D01*
X262629Y38609D01*
X262675Y38665D01*
X262712Y38692D01*
X262721Y38702D01*
X262823Y38776D01*
X262934Y38849D01*
X263045Y38905D01*
X263156Y38951D01*
X263249Y38998D01*
X263323Y39025D01*
X263369Y39035D01*
X263378Y39044D01*
X263387D01*
X263545Y39081D01*
X263702Y39109D01*
X263859Y39136D01*
X263998Y39145D01*
X264127Y39155D01*
X264220Y39164D01*
X264257D01*
X264285D01*
X264303D01*
X264313D01*
X265598D01*
X265783Y39155D01*
D02*
G37*
G36*
X260008Y34752D02*
X260100Y34743D01*
X260183Y34724D01*
X260248Y34705D01*
X260313Y34687D01*
X260359Y34678D01*
X260387Y34659D01*
X260396D01*
X260544Y34567D01*
X260609Y34521D01*
X260664Y34465D01*
X260711Y34428D01*
X260748Y34391D01*
X260766Y34373D01*
X260775Y34363D01*
X260877Y34215D01*
X260960Y34076D01*
X260988Y34021D01*
X261007Y33966D01*
X261025Y33938D01*
Y33929D01*
X261071Y33725D01*
X261090Y33632D01*
X261099Y33540D01*
Y33466D01*
X261108Y33411D01*
Y33355D01*
X261099Y33226D01*
X261090Y33115D01*
X261081Y33068D01*
Y33041D01*
X261071Y33022D01*
Y33013D01*
X261044Y32893D01*
X261007Y32800D01*
X260997Y32763D01*
X260988Y32735D01*
X260979Y32726D01*
Y32717D01*
X260933Y32615D01*
X260886Y32541D01*
X260849Y32486D01*
X260840Y32476D01*
Y32467D01*
X260775Y32384D01*
X260720Y32319D01*
X260683Y32282D01*
X260664Y32263D01*
X260738Y32245D01*
X260803Y32236D01*
X260849Y32226D01*
X260868D01*
X260933Y32208D01*
X260988Y32180D01*
X261025Y32171D01*
X261034Y32162D01*
Y31117D01*
X260979D01*
X260859Y31163D01*
X260738Y31200D01*
X260692Y31218D01*
X260655Y31228D01*
X260627Y31237D01*
X260618D01*
X260535Y31246D01*
X260442Y31255D01*
X260359Y31265D01*
X260267D01*
X260193Y31274D01*
X260137D01*
X260100D01*
X260082D01*
X258361D01*
X258241Y31283D01*
X258121Y31292D01*
X258019Y31311D01*
X257936Y31339D01*
X257862Y31366D01*
X257806Y31385D01*
X257769Y31394D01*
X257760Y31403D01*
X257667Y31459D01*
X257575Y31514D01*
X257501Y31570D01*
X257436Y31635D01*
X257390Y31681D01*
X257344Y31727D01*
X257325Y31755D01*
X257316Y31764D01*
X257205Y31949D01*
X257159Y32042D01*
X257122Y32125D01*
X257094Y32199D01*
X257075Y32254D01*
X257057Y32291D01*
Y32310D01*
X257001Y32541D01*
X256983Y32661D01*
X256974Y32763D01*
X256964Y32855D01*
Y33133D01*
X256983Y33263D01*
X256992Y33383D01*
X257011Y33494D01*
X257029Y33577D01*
X257048Y33642D01*
X257057Y33679D01*
X257066Y33697D01*
X257103Y33808D01*
X257149Y33910D01*
X257196Y34003D01*
X257242Y34086D01*
X257279Y34150D01*
X257316Y34197D01*
X257334Y34225D01*
X257344Y34234D01*
X257408Y34308D01*
X257473Y34373D01*
X257538Y34428D01*
X257603Y34474D01*
X257658Y34511D01*
X257704Y34539D01*
X257732Y34548D01*
X257741Y34558D01*
X257825Y34595D01*
X257917Y34622D01*
X258000Y34641D01*
X258074Y34650D01*
X258139Y34659D01*
X258185Y34668D01*
X258222D01*
X258232D01*
Y33642D01*
X258148Y33632D01*
X258074Y33623D01*
X258019Y33595D01*
X257963Y33568D01*
X257926Y33549D01*
X257899Y33522D01*
X257880Y33512D01*
X257871Y33503D01*
X257825Y33438D01*
X257788Y33364D01*
X257769Y33290D01*
X257751Y33216D01*
X257741Y33152D01*
X257732Y33096D01*
Y33041D01*
X257741Y32911D01*
X257760Y32800D01*
X257788Y32708D01*
X257815Y32634D01*
X257843Y32569D01*
X257871Y32532D01*
X257889Y32504D01*
X257899Y32495D01*
X257963Y32430D01*
X258037Y32384D01*
X258121Y32347D01*
X258195Y32328D01*
X258259Y32310D01*
X258315Y32300D01*
X258352D01*
X258361D01*
X258592D01*
Y33041D01*
X258611Y33207D01*
X258620Y33355D01*
X258648Y33494D01*
X258676Y33623D01*
X258703Y33734D01*
X258731Y33845D01*
X258768Y33938D01*
X258805Y34021D01*
X258833Y34086D01*
X258861Y34150D01*
X258888Y34197D01*
X258907Y34243D01*
X258925Y34271D01*
X258944Y34280D01*
Y34289D01*
X259009Y34373D01*
X259083Y34447D01*
X259157Y34511D01*
X259240Y34558D01*
X259397Y34650D01*
X259554Y34705D01*
X259702Y34733D01*
X259758Y34743D01*
X259813Y34752D01*
X259850Y34761D01*
X259887D01*
X259906D01*
X259915D01*
X260008Y34752D01*
D02*
G37*
G36*
X263943Y33855D02*
X263794Y33845D01*
X263656Y33827D01*
X263545Y33790D01*
X263452Y33753D01*
X263378Y33716D01*
X263332Y33679D01*
X263295Y33660D01*
X263286Y33651D01*
X263203Y33559D01*
X263147Y33457D01*
X263101Y33355D01*
X263073Y33253D01*
X263054Y33161D01*
X263045Y33087D01*
Y33013D01*
X263054Y32902D01*
X263073Y32809D01*
X263082Y32772D01*
X263091Y32745D01*
X263101Y32735D01*
Y32726D01*
X263147Y32634D01*
X263193Y32560D01*
X263230Y32513D01*
X263240Y32495D01*
X263249D01*
X263323Y32430D01*
X263406Y32393D01*
X263461Y32365D01*
X263480Y32356D01*
X263489D01*
X263600Y32319D01*
X263702Y32310D01*
X263739Y32300D01*
X263776D01*
X263794D01*
X263804D01*
X263896Y32310D01*
X263980Y32319D01*
X264044Y32328D01*
X264054Y32337D01*
X264063D01*
X264164Y32375D01*
X264248Y32412D01*
X264285Y32439D01*
X264313Y32449D01*
X264331Y32467D01*
X264340D01*
X264451Y32541D01*
X264562Y32606D01*
X264609Y32643D01*
X264646Y32661D01*
X264664Y32680D01*
X264673Y32689D01*
X264812Y32800D01*
X264942Y32911D01*
X264988Y32957D01*
X265034Y32994D01*
X265062Y33022D01*
X265071Y33031D01*
X266949Y34780D01*
X267642D01*
Y31098D01*
X266819D01*
Y33466D01*
X265746Y32449D01*
X265552Y32263D01*
X265469Y32190D01*
X265395Y32116D01*
X265330Y32060D01*
X265275Y32014D01*
X265247Y31986D01*
X265237Y31977D01*
X265053Y31829D01*
X264979Y31764D01*
X264904Y31709D01*
X264840Y31672D01*
X264793Y31635D01*
X264766Y31616D01*
X264756Y31607D01*
X264581Y31505D01*
X264497Y31459D01*
X264423Y31431D01*
X264368Y31403D01*
X264313Y31385D01*
X264285Y31366D01*
X264276D01*
X264090Y31320D01*
X264007Y31302D01*
X263924Y31292D01*
X263859Y31283D01*
X263813D01*
X263776D01*
X263767D01*
X263637D01*
X263517Y31302D01*
X263406Y31320D01*
X263314Y31339D01*
X263240Y31357D01*
X263175Y31376D01*
X263138Y31385D01*
X263128Y31394D01*
X263018Y31440D01*
X262925Y31486D01*
X262842Y31542D01*
X262768Y31598D01*
X262712Y31644D01*
X262666Y31681D01*
X262638Y31709D01*
X262629Y31718D01*
X262555Y31801D01*
X262490Y31894D01*
X262435Y31977D01*
X262388Y32069D01*
X262351Y32143D01*
X262324Y32199D01*
X262315Y32236D01*
X262305Y32254D01*
X262268Y32375D01*
X262231Y32495D01*
X262213Y32624D01*
X262204Y32735D01*
X262194Y32828D01*
X262185Y32911D01*
Y32976D01*
X262194Y33133D01*
X262204Y33281D01*
X262231Y33420D01*
X262250Y33531D01*
X262278Y33623D01*
X262305Y33697D01*
X262315Y33744D01*
X262324Y33762D01*
X262379Y33892D01*
X262444Y34003D01*
X262509Y34104D01*
X262564Y34197D01*
X262620Y34262D01*
X262666Y34317D01*
X262694Y34354D01*
X262703Y34363D01*
X262795Y34456D01*
X262888Y34530D01*
X262990Y34595D01*
X263073Y34650D01*
X263156Y34696D01*
X263212Y34724D01*
X263249Y34743D01*
X263267Y34752D01*
X263387Y34798D01*
X263508Y34826D01*
X263619Y34854D01*
X263720Y34863D01*
X263813Y34872D01*
X263878Y34881D01*
X263924D01*
X263943D01*
Y33855D01*
D02*
G37*
G36*
X261034Y26584D02*
X260202D01*
Y27666D01*
X257038D01*
Y29849D01*
X257880D01*
Y28702D01*
X260202D01*
Y29849D01*
X261034D01*
Y26584D01*
D02*
G37*
G36*
X256095Y28767D02*
X256169Y28758D01*
X256215Y28749D01*
X256224Y28739D01*
X256234D01*
X256308Y28702D01*
X256363Y28665D01*
X256400Y28628D01*
X256409Y28619D01*
X256456Y28554D01*
X256493Y28499D01*
X256511Y28453D01*
X256520Y28434D01*
X256539Y28351D01*
X256548Y28267D01*
X256557Y28203D01*
Y28184D01*
X256548Y28092D01*
X256530Y28009D01*
X256511Y27935D01*
X256483Y27870D01*
X256456Y27824D01*
X256428Y27786D01*
X256419Y27768D01*
X256409Y27759D01*
X256345Y27703D01*
X256280Y27666D01*
X256215Y27629D01*
X256150Y27611D01*
X256095Y27602D01*
X256049Y27592D01*
X256021D01*
X256012D01*
X255928Y27602D01*
X255845Y27620D01*
X255780Y27648D01*
X255725Y27676D01*
X255679Y27703D01*
X255651Y27731D01*
X255632Y27749D01*
X255623Y27759D01*
X255568Y27824D01*
X255531Y27888D01*
X255503Y27962D01*
X255484Y28027D01*
X255475Y28092D01*
X255466Y28138D01*
Y28184D01*
X255475Y28286D01*
X255484Y28360D01*
X255503Y28416D01*
X255512Y28425D01*
Y28434D01*
X255549Y28508D01*
X255577Y28563D01*
X255614Y28600D01*
X255623Y28619D01*
X255679Y28665D01*
X255734Y28702D01*
X255771Y28730D01*
X255780Y28739D01*
X255790D01*
X255864Y28758D01*
X255938Y28767D01*
X255993Y28776D01*
X256002D01*
X256012D01*
X256095Y28767D01*
D02*
G37*
G36*
X265783Y30071D02*
X265959Y30062D01*
X266116Y30044D01*
X266246Y30016D01*
X266357Y29997D01*
X266440Y29979D01*
X266495Y29969D01*
X266505Y29960D01*
X266514D01*
X266653Y29905D01*
X266782Y29849D01*
X266902Y29794D01*
X266995Y29738D01*
X267078Y29683D01*
X267134Y29646D01*
X267171Y29618D01*
X267180Y29609D01*
X267272Y29516D01*
X267356Y29424D01*
X267430Y29331D01*
X267485Y29248D01*
X267531Y29165D01*
X267559Y29109D01*
X267578Y29072D01*
X267587Y29054D01*
X267633Y28934D01*
X267661Y28804D01*
X267689Y28684D01*
X267698Y28563D01*
X267707Y28471D01*
X267717Y28388D01*
Y28323D01*
X267707Y28175D01*
X267698Y28036D01*
X267680Y27916D01*
X267652Y27805D01*
X267624Y27713D01*
X267605Y27648D01*
X267596Y27611D01*
X267587Y27592D01*
X267531Y27472D01*
X267467Y27370D01*
X267393Y27278D01*
X267328Y27194D01*
X267272Y27130D01*
X267226Y27084D01*
X267189Y27056D01*
X267180Y27047D01*
X267078Y26963D01*
X266958Y26889D01*
X266847Y26834D01*
X266745Y26787D01*
X266653Y26741D01*
X266579Y26713D01*
X266532Y26704D01*
X266514Y26695D01*
X266357Y26658D01*
X266199Y26621D01*
X266052Y26603D01*
X265903Y26593D01*
X265783Y26584D01*
X265682Y26575D01*
X265645D01*
X265617D01*
X265608D01*
X265598D01*
X264313D01*
X264118Y26584D01*
X263943Y26593D01*
X263785Y26612D01*
X263656Y26630D01*
X263545Y26658D01*
X263461Y26676D01*
X263406Y26686D01*
X263387Y26695D01*
X263249Y26741D01*
X263119Y26797D01*
X262999Y26862D01*
X262907Y26917D01*
X262823Y26963D01*
X262768Y27010D01*
X262731Y27037D01*
X262721Y27047D01*
X262629Y27139D01*
X262546Y27231D01*
X262481Y27324D01*
X262425Y27407D01*
X262379Y27491D01*
X262351Y27546D01*
X262333Y27583D01*
X262324Y27602D01*
X262278Y27722D01*
X262241Y27851D01*
X262222Y27972D01*
X262204Y28092D01*
X262194Y28184D01*
X262185Y28267D01*
Y28332D01*
X262194Y28480D01*
X262204Y28619D01*
X262231Y28739D01*
X262250Y28850D01*
X262278Y28943D01*
X262305Y29008D01*
X262315Y29044D01*
X262324Y29063D01*
X262379Y29183D01*
X262444Y29285D01*
X262509Y29378D01*
X262574Y29461D01*
X262629Y29526D01*
X262675Y29581D01*
X262712Y29609D01*
X262721Y29618D01*
X262823Y29692D01*
X262934Y29766D01*
X263045Y29822D01*
X263156Y29868D01*
X263249Y29914D01*
X263323Y29942D01*
X263369Y29951D01*
X263378Y29960D01*
X263387D01*
X263545Y29997D01*
X263702Y30025D01*
X263859Y30053D01*
X263998Y30062D01*
X264127Y30071D01*
X264220Y30081D01*
X264257D01*
X264285D01*
X264303D01*
X264313D01*
X265598D01*
X265783Y30071D01*
D02*
G37*
%LPC*%
G36*
X255857Y119464D02*
Y117377D01*
X255917D01*
Y116900D01*
X255976D01*
Y116602D01*
X256036D01*
Y116304D01*
X256096D01*
Y116125D01*
X256155D01*
Y115887D01*
X256215D01*
Y115648D01*
X256275D01*
Y115469D01*
X256334D01*
Y115290D01*
X256394D01*
Y115171D01*
X256453D01*
Y114992D01*
X256513D01*
Y114813D01*
X256573D01*
Y114694D01*
X256632D01*
Y114515D01*
X256692D01*
Y114396D01*
X256751D01*
Y114277D01*
X256811D01*
Y114158D01*
X256871D01*
Y114039D01*
X256930D01*
Y113860D01*
X256990D01*
Y113800D01*
X257049D01*
Y113681D01*
X257109D01*
Y113561D01*
X257169D01*
Y113442D01*
X257228D01*
Y113383D01*
X257288D01*
Y113263D01*
X257348D01*
Y113144D01*
X257407D01*
Y113025D01*
X257467D01*
Y112965D01*
X257526D01*
Y112846D01*
X257586D01*
Y112786D01*
X257646D01*
Y112667D01*
X257705D01*
Y112608D01*
X257765D01*
Y112488D01*
X257824D01*
Y112429D01*
X257884D01*
Y112369D01*
X257944D01*
Y112310D01*
X258003D01*
Y112190D01*
X258063D01*
Y112131D01*
X258123D01*
Y112071D01*
X258182D01*
Y111952D01*
X258242D01*
Y111892D01*
X258301D01*
Y111833D01*
X258361D01*
Y111773D01*
X258421D01*
Y111713D01*
X258480D01*
Y111654D01*
X258540D01*
Y111594D01*
X258600D01*
Y111535D01*
X258659D01*
Y111475D01*
X258719D01*
Y111415D01*
X258778D01*
Y111356D01*
X258838D01*
Y111296D01*
X258898D01*
X258957D01*
Y111236D01*
X259017D01*
Y111177D01*
X259076D01*
Y111117D01*
X259136D01*
X259196D01*
Y111058D01*
X259255D01*
Y110998D01*
X259315D01*
X259375D01*
Y110938D01*
X259434D01*
X259494D01*
Y110879D01*
X259554D01*
Y110819D01*
X259613D01*
Y110640D01*
X259673D01*
Y110521D01*
X259732D01*
Y110283D01*
X259792D01*
Y110163D01*
X259852D01*
Y109985D01*
X259911D01*
Y109806D01*
X259971D01*
Y109686D01*
X260030D01*
Y109508D01*
X260090D01*
Y109388D01*
X260150D01*
Y109209D01*
X260209D01*
Y109090D01*
X260269D01*
Y108911D01*
X260329D01*
Y108792D01*
X260388D01*
Y108673D01*
X260448D01*
Y108554D01*
X260507D01*
Y108434D01*
X260567D01*
Y108256D01*
X260627D01*
Y108136D01*
X260686D01*
Y108017D01*
X260746D01*
Y107898D01*
X260805D01*
Y107838D01*
X260865D01*
Y107719D01*
X260925D01*
Y107600D01*
X260984D01*
Y107481D01*
X261044D01*
Y107361D01*
X261104D01*
Y107302D01*
X261163D01*
Y107183D01*
X261223D01*
Y107123D01*
X261282D01*
Y107004D01*
X261342D01*
Y106944D01*
X261402D01*
Y106884D01*
X261461D01*
Y106765D01*
X261521D01*
Y106705D01*
X261580D01*
Y106646D01*
X261640D01*
Y106586D01*
X261700D01*
Y106527D01*
X261759D01*
Y106467D01*
X261819D01*
Y106407D01*
X261878D01*
Y106348D01*
X261938D01*
Y106288D01*
X261998D01*
Y106229D01*
X262057D01*
Y106169D01*
X262117D01*
Y106109D01*
X262177D01*
X262236D01*
Y106050D01*
X262296D01*
Y105990D01*
X262355D01*
X262415D01*
Y105930D01*
X262475D01*
X262534D01*
Y105871D01*
X262594D01*
X262653D01*
Y105811D01*
X262713D01*
X262773D01*
Y105752D01*
X262832D01*
X262892D01*
X262952D01*
X263011D01*
Y105692D01*
X263071D01*
X263130D01*
X263190D01*
X263250D01*
X263309D01*
X263369D01*
Y105632D01*
X263429D01*
X263488D01*
X263548D01*
X263607D01*
X263667D01*
X263727D01*
X263786D01*
Y105692D01*
X263846D01*
X263906D01*
X263965D01*
X264025D01*
X264084D01*
X264144D01*
X264204D01*
Y105752D01*
X264263D01*
X264323D01*
X264383D01*
X264442D01*
X264502D01*
Y105811D01*
X264561D01*
X264621D01*
X264681D01*
Y105752D01*
X264740D01*
Y105632D01*
X264800D01*
Y105573D01*
X264859D01*
Y105513D01*
X264919D01*
Y105454D01*
X264979D01*
Y105334D01*
X265038D01*
Y105275D01*
X265098D01*
Y105215D01*
X265158D01*
Y105156D01*
X265217D01*
Y105096D01*
X265277D01*
Y105036D01*
X265336D01*
Y104977D01*
X265396D01*
Y104917D01*
X265456D01*
Y104857D01*
X265515D01*
Y104798D01*
X265575D01*
Y104738D01*
X265634D01*
Y104678D01*
X265694D01*
X265754D01*
Y104619D01*
X265813D01*
Y104559D01*
X265873D01*
Y104500D01*
X265932D01*
Y104440D01*
X265992D01*
X266052D01*
Y104380D01*
X266111D01*
Y104321D01*
X266171D01*
Y104261D01*
X266231D01*
X266290D01*
Y104202D01*
X266350D01*
Y104142D01*
X266409D01*
X266469D01*
Y104082D01*
X266529D01*
Y104023D01*
X266588D01*
X266648D01*
Y103963D01*
X266707D01*
X266767D01*
Y103903D01*
X266827D01*
X266886D01*
Y103844D01*
X266946D01*
X267006D01*
Y103784D01*
X267065D01*
Y103725D01*
X267125D01*
X267184D01*
X267244D01*
Y103665D01*
X267304D01*
X267363D01*
Y103605D01*
X267423D01*
X267483D01*
X267542D01*
Y103546D01*
X267602D01*
X267661D01*
Y103486D01*
X267721D01*
X267781D01*
X267840D01*
Y103427D01*
X267900D01*
X267959D01*
X268019D01*
Y103367D01*
X268079D01*
X268138D01*
X268198D01*
Y103307D01*
X268258D01*
X268317D01*
X268377D01*
X268436D01*
Y103248D01*
X268496D01*
X268556D01*
X268615D01*
X268675D01*
Y103188D01*
X268735D01*
X268794D01*
X268854D01*
X268913D01*
X268973D01*
X269033D01*
Y103129D01*
X269092D01*
X269152D01*
X269212D01*
X269271D01*
X269331D01*
X269390D01*
X269450D01*
X269510D01*
X269569D01*
X269629D01*
X269688D01*
X269748D01*
X269808D01*
X269867D01*
X269927D01*
X269987D01*
X270046D01*
X270106D01*
X270165D01*
X270225D01*
X270285D01*
X270344D01*
X270404D01*
X270463D01*
X270523D01*
X270583D01*
X270642D01*
X270702D01*
X270761D01*
X270821D01*
X270881D01*
Y103188D01*
X270940D01*
X271000D01*
X271060D01*
X271119D01*
X271179D01*
Y103248D01*
X271238D01*
X271298D01*
X271358D01*
Y103307D01*
X271417D01*
X271477D01*
X271537D01*
Y103367D01*
X271596D01*
X271656D01*
Y103427D01*
X271715D01*
X271775D01*
Y103486D01*
X271835D01*
Y103546D01*
X271894D01*
Y103605D01*
X271954D01*
Y103665D01*
X272013D01*
Y103784D01*
X272073D01*
Y103903D01*
X272133D01*
Y104082D01*
X272192D01*
Y104380D01*
X272252D01*
Y104440D01*
X272192D01*
Y104857D01*
X272133D01*
Y105156D01*
X272073D01*
Y105334D01*
X272013D01*
Y105573D01*
X271954D01*
Y105752D01*
X271894D01*
Y105871D01*
X271835D01*
Y106050D01*
X271775D01*
Y106169D01*
X271715D01*
Y106348D01*
X271656D01*
Y106467D01*
X271596D01*
Y106586D01*
X271537D01*
Y106765D01*
X271477D01*
Y106884D01*
X271417D01*
Y107063D01*
X271358D01*
Y107183D01*
X271298D01*
Y107302D01*
X271238D01*
Y107481D01*
X271179D01*
Y107600D01*
X271119D01*
Y107779D01*
X271060D01*
Y107898D01*
X271000D01*
Y108017D01*
X270940D01*
Y108196D01*
X270881D01*
Y108315D01*
X270821D01*
Y108494D01*
X270761D01*
Y108613D01*
X270702D01*
Y108792D01*
X270642D01*
Y108911D01*
X270583D01*
Y109090D01*
X270523D01*
Y109329D01*
X270583D01*
Y109388D01*
X270642D01*
Y109448D01*
X270702D01*
Y109508D01*
X270761D01*
Y109567D01*
X270821D01*
X270881D01*
Y109686D01*
X270940D01*
Y109746D01*
X271000D01*
Y109806D01*
X271060D01*
Y109865D01*
X271119D01*
Y109925D01*
X271179D01*
Y109985D01*
X271238D01*
Y110104D01*
X271298D01*
Y110163D01*
X271358D01*
Y110283D01*
X271417D01*
Y110402D01*
X271477D01*
Y110521D01*
X271537D01*
Y110700D01*
X271596D01*
Y110879D01*
X271656D01*
Y111952D01*
X271596D01*
Y112190D01*
X271537D01*
Y112429D01*
X271477D01*
Y112548D01*
X271417D01*
Y112786D01*
X271358D01*
Y112906D01*
X271298D01*
Y113085D01*
X271238D01*
Y113204D01*
X271179D01*
Y113383D01*
X271119D01*
Y113502D01*
X271060D01*
Y113621D01*
X271000D01*
Y113800D01*
X270940D01*
Y113919D01*
X270881D01*
Y114098D01*
X270821D01*
Y114217D01*
X270761D01*
Y114337D01*
X270702D01*
Y114515D01*
X270642D01*
Y114635D01*
X270583D01*
Y114813D01*
X270523D01*
Y114933D01*
X270583D01*
Y115052D01*
X270642D01*
Y115171D01*
X270702D01*
Y115350D01*
X270761D01*
Y115469D01*
X270821D01*
Y115648D01*
X270881D01*
Y115887D01*
X270940D01*
Y116066D01*
X271000D01*
Y116304D01*
X271060D01*
Y116542D01*
X271119D01*
Y116900D01*
X271179D01*
Y117258D01*
X271238D01*
Y118152D01*
X271298D01*
Y118271D01*
X271238D01*
Y119166D01*
X271179D01*
Y119523D01*
X271119D01*
Y119821D01*
X271060D01*
Y120060D01*
X271000D01*
Y120298D01*
X270940D01*
Y120417D01*
X270881D01*
Y120596D01*
X270821D01*
Y120775D01*
X270761D01*
Y120895D01*
X270702D01*
Y121014D01*
X270642D01*
Y121133D01*
X270583D01*
Y121431D01*
X270642D01*
Y121550D01*
X270702D01*
Y121729D01*
X270761D01*
Y121848D01*
X270821D01*
Y121968D01*
X270881D01*
Y122146D01*
X270940D01*
Y122266D01*
X271000D01*
Y122444D01*
X271060D01*
Y122564D01*
X271119D01*
Y122743D01*
X271179D01*
Y122862D01*
X271238D01*
Y123041D01*
X271298D01*
Y123220D01*
X271358D01*
Y123339D01*
X271417D01*
Y123518D01*
X271477D01*
Y123696D01*
X271537D01*
Y123935D01*
X271596D01*
Y124173D01*
X271656D01*
Y124471D01*
X271715D01*
Y125604D01*
X271656D01*
Y125843D01*
X271596D01*
Y126022D01*
X271537D01*
Y126200D01*
X271477D01*
Y126320D01*
X271417D01*
Y126439D01*
X271358D01*
Y126498D01*
X271298D01*
Y126618D01*
X271238D01*
Y126677D01*
X271179D01*
Y126797D01*
X271119D01*
Y126856D01*
X271060D01*
Y126916D01*
X271000D01*
Y126975D01*
X270940D01*
Y127095D01*
X270881D01*
Y127154D01*
X270821D01*
Y127214D01*
X270761D01*
Y127273D01*
X270702D01*
Y127393D01*
X270761D01*
Y127572D01*
X270821D01*
Y127751D01*
X270881D01*
Y127870D01*
X270940D01*
Y128049D01*
X271000D01*
Y128168D01*
X271060D01*
Y128287D01*
X271119D01*
Y128466D01*
X271179D01*
Y128585D01*
X271238D01*
Y128764D01*
X271298D01*
Y128883D01*
X271358D01*
Y129002D01*
X271417D01*
Y129181D01*
X271477D01*
Y129300D01*
X271537D01*
Y129420D01*
X271596D01*
Y129599D01*
X271656D01*
Y129718D01*
X271715D01*
Y129897D01*
X271775D01*
Y130016D01*
X271835D01*
Y130135D01*
X271894D01*
Y130254D01*
X271954D01*
Y130433D01*
X272013D01*
Y130612D01*
X272073D01*
Y130731D01*
X272133D01*
Y130970D01*
X272192D01*
Y131089D01*
X272252D01*
Y131387D01*
X272312D01*
Y132341D01*
X272252D01*
Y132520D01*
X272192D01*
Y132639D01*
X272133D01*
Y132699D01*
X272073D01*
Y132818D01*
X272013D01*
Y132878D01*
X271954D01*
Y132937D01*
X271894D01*
X271835D01*
Y132997D01*
X271775D01*
Y133056D01*
X271715D01*
X271656D01*
Y133116D01*
X271596D01*
X271537D01*
X271477D01*
Y133176D01*
X271417D01*
X271358D01*
X271298D01*
Y133235D01*
X271238D01*
X271179D01*
X271119D01*
X271060D01*
Y133295D01*
X271000D01*
X270940D01*
X270881D01*
X270821D01*
X270761D01*
Y133354D01*
X270702D01*
X270642D01*
X270583D01*
X270523D01*
X270463D01*
X270404D01*
X270344D01*
X270285D01*
X270225D01*
X270165D01*
X270106D01*
X270046D01*
X269987D01*
X269927D01*
X269867D01*
X269808D01*
X269748D01*
X269688D01*
X269629D01*
X269569D01*
X269510D01*
X269450D01*
X269390D01*
X269331D01*
X269271D01*
X269212D01*
X269152D01*
X269092D01*
Y133295D01*
X269033D01*
X268973D01*
X268913D01*
X268854D01*
X268794D01*
X268735D01*
Y133235D01*
X268675D01*
X268615D01*
X268556D01*
X268496D01*
X268436D01*
Y133176D01*
X268377D01*
X268317D01*
X268258D01*
X268198D01*
Y133116D01*
X268138D01*
X268079D01*
X268019D01*
Y133056D01*
X267959D01*
X267900D01*
X267840D01*
Y132997D01*
X267781D01*
X267721D01*
X267661D01*
Y132937D01*
X267602D01*
X267542D01*
X267483D01*
Y132878D01*
X267423D01*
X267363D01*
Y132818D01*
X267304D01*
X267244D01*
Y132758D01*
X267184D01*
X267125D01*
X267065D01*
Y132699D01*
X267006D01*
Y132639D01*
X266946D01*
X266886D01*
Y132580D01*
X266827D01*
X266767D01*
Y132520D01*
X266707D01*
X266648D01*
Y132460D01*
X266588D01*
X266529D01*
Y132401D01*
X266469D01*
Y132341D01*
X266409D01*
X266350D01*
Y132281D01*
X266290D01*
Y132222D01*
X266231D01*
X266171D01*
Y132162D01*
X266111D01*
Y132103D01*
X266052D01*
Y132043D01*
X265992D01*
X265932D01*
Y131983D01*
X265873D01*
Y131924D01*
X265813D01*
Y131864D01*
X265754D01*
Y131804D01*
X265694D01*
Y131745D01*
X265634D01*
Y131685D01*
X265575D01*
X265515D01*
Y131626D01*
X265456D01*
Y131566D01*
X265396D01*
Y131506D01*
X265336D01*
Y131447D01*
X265277D01*
Y131327D01*
X265217D01*
Y131268D01*
X265158D01*
Y131208D01*
X265098D01*
Y131149D01*
X265038D01*
Y131089D01*
X264979D01*
Y131029D01*
X264919D01*
Y130910D01*
X264859D01*
Y130851D01*
X264800D01*
X264740D01*
Y130910D01*
X264681D01*
X264621D01*
Y130970D01*
X264561D01*
X264502D01*
X264442D01*
Y131029D01*
X264383D01*
X264323D01*
X264263D01*
Y131089D01*
X264204D01*
X264144D01*
X264084D01*
Y131149D01*
X264025D01*
X263965D01*
X263906D01*
X263846D01*
X263786D01*
X263727D01*
Y131208D01*
X263667D01*
X263607D01*
X263548D01*
X263488D01*
X263429D01*
X263369D01*
Y131149D01*
X263309D01*
X263250D01*
X263190D01*
X263130D01*
X263071D01*
Y131089D01*
X263011D01*
X262952D01*
X262892D01*
Y131029D01*
X262832D01*
X262773D01*
Y130970D01*
X262713D01*
X262653D01*
Y130910D01*
X262594D01*
X262534D01*
Y130851D01*
X262475D01*
Y130791D01*
X262415D01*
X262355D01*
Y130731D01*
X262296D01*
Y130672D01*
X262236D01*
Y130612D01*
X262177D01*
Y130552D01*
X262117D01*
Y130493D01*
X262057D01*
Y130433D01*
X261998D01*
Y130374D01*
X261938D01*
Y130314D01*
X261878D01*
Y130195D01*
X261819D01*
Y130135D01*
X261759D01*
Y130076D01*
X261700D01*
Y129956D01*
X261640D01*
Y129897D01*
X261580D01*
Y129778D01*
X261521D01*
Y129718D01*
X261461D01*
Y129599D01*
X261402D01*
Y129539D01*
X261342D01*
Y129420D01*
X261282D01*
Y129300D01*
X261223D01*
Y129181D01*
X261163D01*
Y129062D01*
X261104D01*
Y128943D01*
X261044D01*
Y128824D01*
X260984D01*
Y128704D01*
X260925D01*
Y128585D01*
X260865D01*
Y128466D01*
X260805D01*
Y128347D01*
X260746D01*
Y128227D01*
X260686D01*
Y128108D01*
X260627D01*
Y127989D01*
X260567D01*
Y127810D01*
X260507D01*
Y127691D01*
X260448D01*
Y127572D01*
X260388D01*
Y127393D01*
X260329D01*
Y127273D01*
X260269D01*
Y127095D01*
X260209D01*
Y126975D01*
X260150D01*
Y126797D01*
X260090D01*
Y126677D01*
X260030D01*
Y126498D01*
X259971D01*
Y126379D01*
X259911D01*
Y126260D01*
X259852D01*
Y126141D01*
X259792D01*
X259732D01*
X259673D01*
Y126081D01*
X259613D01*
X259554D01*
X259494D01*
Y126022D01*
X259434D01*
X259375D01*
Y125962D01*
X259315D01*
X259255D01*
Y125902D01*
X259196D01*
X259136D01*
Y125843D01*
X259076D01*
Y125783D01*
X259017D01*
X258957D01*
Y125724D01*
X258898D01*
Y125664D01*
X258838D01*
X258778D01*
Y125604D01*
X258719D01*
Y125545D01*
X258659D01*
Y125485D01*
X258600D01*
Y125425D01*
X258540D01*
Y125366D01*
X258480D01*
Y125306D01*
X258421D01*
Y125247D01*
X258361D01*
Y125187D01*
X258301D01*
Y125127D01*
X258242D01*
Y125068D01*
X258182D01*
Y125008D01*
X258123D01*
Y124949D01*
X258063D01*
Y124829D01*
X258003D01*
Y124770D01*
X257944D01*
Y124710D01*
X257884D01*
Y124591D01*
X257824D01*
Y124531D01*
X257765D01*
Y124471D01*
X257705D01*
Y124352D01*
X257646D01*
Y124293D01*
X257586D01*
Y124173D01*
X257526D01*
Y124114D01*
X257467D01*
Y123995D01*
X257407D01*
Y123875D01*
X257348D01*
Y123756D01*
X257288D01*
Y123696D01*
X257228D01*
Y123577D01*
X257169D01*
Y123458D01*
X257109D01*
Y123339D01*
X257049D01*
Y123220D01*
X256990D01*
Y123100D01*
X256930D01*
Y122981D01*
X256871D01*
Y122862D01*
X256811D01*
Y122743D01*
X256751D01*
Y122564D01*
X256692D01*
Y122444D01*
X256632D01*
Y122266D01*
X256573D01*
Y122146D01*
X256513D01*
Y121968D01*
X256453D01*
Y121789D01*
X256394D01*
Y121669D01*
X256334D01*
Y121431D01*
X256275D01*
Y121252D01*
X256215D01*
Y121014D01*
X256155D01*
Y120775D01*
X256096D01*
Y120537D01*
X256036D01*
Y120239D01*
X255976D01*
Y119941D01*
X255917D01*
Y119464D01*
X255857D01*
D02*
G37*
G36*
X163230Y154024D02*
X163175D01*
X163055Y154015D01*
X162944Y153987D01*
X162851Y153940D01*
X162777Y153894D01*
X162722Y153839D01*
X162685Y153802D01*
X162657Y153765D01*
X162648Y153755D01*
X162583Y153645D01*
X162537Y153524D01*
X162509Y153395D01*
X162481Y153265D01*
X162463Y153145D01*
X162453Y153052D01*
Y153015D01*
Y152988D01*
Y152969D01*
Y152960D01*
X163887Y151887D01*
Y152895D01*
X163878Y153099D01*
X163859Y153275D01*
X163832Y153413D01*
X163795Y153533D01*
X163767Y153626D01*
X163739Y153691D01*
X163721Y153737D01*
X163711Y153746D01*
X163637Y153839D01*
X163554Y153903D01*
X163462Y153959D01*
X163378Y153987D01*
X163295Y154005D01*
X163230Y154024D01*
D02*
G37*
G36*
X162453Y152257D02*
Y151286D01*
X162463Y151082D01*
X162481Y150907D01*
X162509Y150759D01*
X162537Y150638D01*
X162574Y150546D01*
X162601Y150481D01*
X162620Y150435D01*
X162629Y150426D01*
X162703Y150333D01*
X162786Y150268D01*
X162879Y150213D01*
X162962Y150185D01*
X163045Y150166D01*
X163110Y150157D01*
X163147Y150148D01*
X163166D01*
X163286Y150157D01*
X163397Y150185D01*
X163489Y150231D01*
X163563Y150277D01*
X163619Y150314D01*
X163656Y150361D01*
X163684Y150389D01*
X163693Y150398D01*
X163748Y150509D01*
X163795Y150629D01*
X163832Y150768D01*
X163859Y150897D01*
X163869Y151008D01*
X163878Y151110D01*
X163887Y151138D01*
Y151165D01*
Y151184D01*
Y151193D01*
X162453Y152257D01*
D02*
G37*
G36*
X182276Y147323D02*
X181508D01*
X181351Y147314D01*
X181212Y147295D01*
X181101Y147267D01*
X181000Y147240D01*
X180926Y147212D01*
X180879Y147184D01*
X180842Y147166D01*
X180833Y147157D01*
X180759Y147082D01*
X180704Y146999D01*
X180657Y146907D01*
X180630Y146824D01*
X180611Y146740D01*
X180602Y146676D01*
Y146629D01*
Y146611D01*
X180611Y146491D01*
X180639Y146389D01*
X180676Y146296D01*
X180722Y146222D01*
X180768Y146167D01*
X180805Y146130D01*
X180833Y146102D01*
X180842Y146093D01*
X180935Y146037D01*
X181046Y145991D01*
X181157Y145954D01*
X181259Y145935D01*
X181360Y145917D01*
X181434Y145908D01*
X182276D01*
Y147323D01*
D02*
G37*
G36*
Y145159D02*
X181305D01*
X181157Y145149D01*
X181027Y145122D01*
X180916Y145094D01*
X180833Y145057D01*
X180759Y145010D01*
X180713Y144983D01*
X180685Y144955D01*
X180676Y144946D01*
X180611Y144862D01*
X180556Y144770D01*
X180528Y144677D01*
X180500Y144585D01*
X180491Y144502D01*
X180482Y144437D01*
Y144391D01*
Y144372D01*
X180491Y144252D01*
X180519Y144150D01*
X180556Y144058D01*
X180593Y143984D01*
X180630Y143919D01*
X180667Y143873D01*
X180694Y143845D01*
X180704Y143836D01*
X180796Y143771D01*
X180898Y143716D01*
X181009Y143678D01*
X181111Y143651D01*
X181203Y143641D01*
X181277Y143632D01*
X181333Y143623D01*
X182276D01*
Y145159D01*
D02*
G37*
G36*
X168586Y147332D02*
X167781D01*
X167624Y147323D01*
X167559Y147314D01*
X167504Y147295D01*
X167467Y147286D01*
X167430Y147267D01*
X167411Y147258D01*
X167402D01*
X167291Y147194D01*
X167199Y147138D01*
X167143Y147082D01*
X167134Y147073D01*
X167125Y147064D01*
X167051Y146971D01*
X166995Y146879D01*
X166977Y146833D01*
X166967Y146805D01*
X166958Y146786D01*
Y146777D01*
X166921Y146657D01*
X166912Y146546D01*
X166903Y146500D01*
Y146463D01*
Y146435D01*
Y146426D01*
X166912Y146315D01*
X166930Y146213D01*
X166940Y146167D01*
X166949Y146139D01*
X166958Y146121D01*
Y146111D01*
X167004Y146010D01*
X167060Y145926D01*
X167106Y145871D01*
X167115Y145861D01*
X167125Y145852D01*
X167217Y145778D01*
X167300Y145723D01*
X167347Y145695D01*
X167374Y145677D01*
X167393Y145667D01*
X167402D01*
X167532Y145630D01*
X167652Y145612D01*
X167698Y145603D01*
X168586D01*
Y147332D01*
D02*
G37*
G36*
X164118Y147332D02*
X163776D01*
X163656Y147323D01*
X163554Y147314D01*
X163452Y147295D01*
X163369Y147277D01*
X163304Y147249D01*
X163258Y147231D01*
X163221Y147221D01*
X163212Y147212D01*
X163045Y147110D01*
X162981Y147055D01*
X162916Y146999D01*
X162870Y146953D01*
X162833Y146916D01*
X162814Y146888D01*
X162805Y146879D01*
X162694Y146713D01*
X162657Y146620D01*
X162620Y146537D01*
X162592Y146472D01*
X162574Y146416D01*
X162555Y146370D01*
Y146361D01*
X162509Y146130D01*
X162490Y146028D01*
X162481Y145926D01*
X162472Y145834D01*
Y145769D01*
Y145723D01*
Y145704D01*
Y145251D01*
Y145112D01*
X162490Y144983D01*
X162500Y144872D01*
X162518Y144770D01*
X162537Y144687D01*
X162546Y144622D01*
X162564Y144585D01*
Y144567D01*
X162601Y144456D01*
X162638Y144354D01*
X162675Y144271D01*
X162722Y144196D01*
X162759Y144132D01*
X162786Y144086D01*
X162805Y144058D01*
X162814Y144049D01*
X162944Y143910D01*
X163008Y143863D01*
X163064Y143817D01*
X163119Y143780D01*
X163166Y143753D01*
X163193Y143743D01*
X163203Y143734D01*
X163295Y143697D01*
X163378Y143669D01*
X163471Y143651D01*
X163545Y143641D01*
X163619Y143632D01*
X163674Y143623D01*
X164118D01*
Y147332D01*
D02*
G37*
G36*
X258657Y70041D02*
X258518Y70003D01*
X258407Y69967D01*
X258361Y69957D01*
X258333Y69939D01*
X258315Y69929D01*
X258306D01*
X258195Y69865D01*
X258111Y69809D01*
X258056Y69763D01*
X258047Y69745D01*
X258037D01*
X257963Y69661D01*
X257908Y69578D01*
X257871Y69513D01*
X257862Y69504D01*
Y69495D01*
X257825Y69384D01*
X257806Y69273D01*
X257797Y69236D01*
Y69171D01*
X257806Y69032D01*
X257825Y68931D01*
X257843Y68884D01*
X257852Y68857D01*
X257862Y68838D01*
Y68829D01*
X257908Y68727D01*
X257963Y68644D01*
X258010Y68598D01*
X258019Y68579D01*
X258028D01*
X258111Y68505D01*
X258195Y68449D01*
X258222Y68431D01*
X258250Y68422D01*
X258269Y68413D01*
X258278D01*
X258380Y68375D01*
X258481Y68366D01*
X258518Y68357D01*
X258555D01*
X258574D01*
X258583D01*
X258657D01*
Y70041D01*
D02*
G37*
G36*
X259878Y60975D02*
X259850D01*
X259841D01*
X259739Y60966D01*
X259665Y60948D01*
X259610Y60939D01*
X259601Y60929D01*
X259591D01*
X259508Y60883D01*
X259443Y60827D01*
X259406Y60790D01*
X259388Y60772D01*
X259332Y60680D01*
X259295Y60587D01*
X259277Y60550D01*
X259268Y60522D01*
X259258Y60504D01*
Y60495D01*
X259231Y60356D01*
X259221Y60217D01*
X259212Y60162D01*
Y59551D01*
X259897D01*
X259952Y59588D01*
X259998Y59634D01*
X260035Y59662D01*
X260054Y59681D01*
X260109Y59736D01*
X260146Y59801D01*
X260183Y59847D01*
X260193Y59856D01*
Y59865D01*
X260230Y59949D01*
X260257Y60023D01*
X260276Y60078D01*
X260285Y60097D01*
Y60106D01*
X260304Y60208D01*
X260313Y60300D01*
X260322Y60337D01*
Y60393D01*
X260313Y60495D01*
X260304Y60587D01*
X260276Y60661D01*
X260248Y60726D01*
X260230Y60772D01*
X260202Y60809D01*
X260193Y60827D01*
X260183Y60837D01*
X260128Y60883D01*
X260072Y60920D01*
X260017Y60939D01*
X259961Y60957D01*
X259915Y60966D01*
X259878Y60975D01*
D02*
G37*
G36*
X260202Y47295D02*
X256493D01*
Y46953D01*
X256502Y46832D01*
X256511Y46731D01*
X256530Y46629D01*
X256548Y46545D01*
X256576Y46481D01*
X256594Y46435D01*
X256604Y46398D01*
X256613Y46388D01*
X256715Y46222D01*
X256770Y46157D01*
X256826Y46092D01*
X256872Y46046D01*
X256909Y46009D01*
X256937Y45991D01*
X256946Y45981D01*
X257112Y45870D01*
X257205Y45833D01*
X257288Y45796D01*
X257353Y45768D01*
X257408Y45750D01*
X257455Y45731D01*
X257464D01*
X257695Y45685D01*
X257797Y45667D01*
X257899Y45658D01*
X257991Y45648D01*
X258056D01*
X258102D01*
X258121D01*
X258574D01*
X258713D01*
X258842Y45667D01*
X258953Y45676D01*
X259055Y45695D01*
X259138Y45713D01*
X259203Y45722D01*
X259240Y45741D01*
X259258D01*
X259369Y45778D01*
X259471Y45815D01*
X259554Y45852D01*
X259628Y45898D01*
X259693Y45935D01*
X259739Y45963D01*
X259767Y45981D01*
X259776Y45991D01*
X259915Y46120D01*
X259961Y46185D01*
X260008Y46240D01*
X260045Y46296D01*
X260072Y46342D01*
X260082Y46370D01*
X260091Y46379D01*
X260128Y46472D01*
X260156Y46555D01*
X260174Y46647D01*
X260183Y46721D01*
X260193Y46795D01*
X260202Y46851D01*
Y47295D01*
D02*
G37*
G36*
X258657Y42790D02*
X258518Y42753D01*
X258407Y42716D01*
X258361Y42707D01*
X258333Y42688D01*
X258315Y42679D01*
X258306D01*
X258195Y42614D01*
X258111Y42559D01*
X258056Y42513D01*
X258047Y42494D01*
X258037D01*
X257963Y42411D01*
X257908Y42328D01*
X257871Y42263D01*
X257862Y42254D01*
Y42244D01*
X257825Y42133D01*
X257806Y42022D01*
X257797Y41985D01*
Y41921D01*
X257806Y41782D01*
X257825Y41680D01*
X257843Y41634D01*
X257852Y41606D01*
X257862Y41587D01*
Y41578D01*
X257908Y41477D01*
X257963Y41393D01*
X258010Y41347D01*
X258019Y41329D01*
X258028D01*
X258111Y41255D01*
X258195Y41199D01*
X258222Y41181D01*
X258250Y41171D01*
X258269Y41162D01*
X258278D01*
X258380Y41125D01*
X258481Y41116D01*
X258518Y41107D01*
X258555D01*
X258574D01*
X258583D01*
X258657D01*
Y42790D01*
D02*
G37*
G36*
X265903Y38128D02*
X265876D01*
X265857D01*
X265848D01*
X264784Y36694D01*
X265756D01*
X265959Y36704D01*
X266135Y36722D01*
X266283Y36750D01*
X266403Y36778D01*
X266495Y36815D01*
X266560Y36842D01*
X266606Y36861D01*
X266616Y36870D01*
X266708Y36944D01*
X266773Y37027D01*
X266828Y37120D01*
X266856Y37203D01*
X266875Y37286D01*
X266884Y37351D01*
X266893Y37388D01*
Y37407D01*
X266884Y37527D01*
X266856Y37638D01*
X266810Y37730D01*
X266764Y37804D01*
X266727Y37860D01*
X266681Y37897D01*
X266653Y37925D01*
X266644Y37934D01*
X266532Y37989D01*
X266412Y38036D01*
X266273Y38073D01*
X266144Y38100D01*
X266033Y38110D01*
X265931Y38119D01*
X265903Y38128D01*
D02*
G37*
G36*
X265154D02*
X264146D01*
X263943Y38119D01*
X263767Y38100D01*
X263628Y38073D01*
X263508Y38036D01*
X263415Y38008D01*
X263351Y37980D01*
X263304Y37962D01*
X263295Y37952D01*
X263203Y37878D01*
X263138Y37795D01*
X263082Y37703D01*
X263054Y37619D01*
X263036Y37536D01*
X263018Y37471D01*
Y37416D01*
X263027Y37295D01*
X263054Y37185D01*
X263101Y37092D01*
X263147Y37018D01*
X263203Y36963D01*
X263240Y36926D01*
X263277Y36898D01*
X263286Y36889D01*
X263397Y36824D01*
X263517Y36778D01*
X263647Y36750D01*
X263776Y36722D01*
X263896Y36704D01*
X263989Y36694D01*
X264026D01*
X264054D01*
X264072D01*
X264081D01*
X265154Y38128D01*
D02*
G37*
G36*
X259878Y33725D02*
X259850D01*
X259841D01*
X259739Y33716D01*
X259665Y33697D01*
X259610Y33688D01*
X259601Y33679D01*
X259591D01*
X259508Y33632D01*
X259443Y33577D01*
X259406Y33540D01*
X259388Y33522D01*
X259332Y33429D01*
X259295Y33336D01*
X259277Y33299D01*
X259268Y33272D01*
X259258Y33253D01*
Y33244D01*
X259231Y33105D01*
X259221Y32967D01*
X259212Y32911D01*
Y32300D01*
X259897D01*
X259952Y32337D01*
X259998Y32384D01*
X260035Y32412D01*
X260054Y32430D01*
X260109Y32486D01*
X260146Y32550D01*
X260183Y32597D01*
X260193Y32606D01*
Y32615D01*
X260230Y32698D01*
X260257Y32772D01*
X260276Y32828D01*
X260285Y32846D01*
Y32855D01*
X260304Y32957D01*
X260313Y33050D01*
X260322Y33087D01*
Y33142D01*
X260313Y33244D01*
X260304Y33336D01*
X260276Y33411D01*
X260248Y33475D01*
X260230Y33522D01*
X260202Y33559D01*
X260193Y33577D01*
X260183Y33586D01*
X260128Y33632D01*
X260072Y33669D01*
X260017Y33688D01*
X259961Y33707D01*
X259915Y33716D01*
X259878Y33725D01*
D02*
G37*
G36*
X265903Y29044D02*
X265876D01*
X265857D01*
X265848D01*
X264784Y27611D01*
X265756D01*
X265959Y27620D01*
X266135Y27639D01*
X266283Y27666D01*
X266403Y27694D01*
X266495Y27731D01*
X266560Y27759D01*
X266606Y27777D01*
X266616Y27786D01*
X266708Y27861D01*
X266773Y27944D01*
X266828Y28036D01*
X266856Y28120D01*
X266875Y28203D01*
X266884Y28267D01*
X266893Y28305D01*
Y28323D01*
X266884Y28443D01*
X266856Y28554D01*
X266810Y28647D01*
X266764Y28721D01*
X266727Y28776D01*
X266681Y28813D01*
X266653Y28841D01*
X266644Y28850D01*
X266532Y28906D01*
X266412Y28952D01*
X266273Y28989D01*
X266144Y29017D01*
X266033Y29026D01*
X265931Y29035D01*
X265903Y29044D01*
D02*
G37*
G36*
X265154D02*
X264146D01*
X263943Y29035D01*
X263767Y29017D01*
X263628Y28989D01*
X263508Y28952D01*
X263415Y28924D01*
X263351Y28897D01*
X263304Y28878D01*
X263295Y28869D01*
X263203Y28795D01*
X263138Y28712D01*
X263082Y28619D01*
X263054Y28536D01*
X263036Y28453D01*
X263018Y28388D01*
Y28332D01*
X263027Y28212D01*
X263054Y28101D01*
X263101Y28009D01*
X263147Y27935D01*
X263203Y27879D01*
X263240Y27842D01*
X263277Y27814D01*
X263286Y27805D01*
X263397Y27740D01*
X263517Y27694D01*
X263647Y27666D01*
X263776Y27639D01*
X263896Y27620D01*
X263989Y27611D01*
X264026D01*
X264054D01*
X264072D01*
X264081D01*
X265154Y29044D01*
D02*
G37*
%LPD*%
D10*
X39937Y55268D02*
G03*
X39937Y55268I-492J0D01*
G01*
X156905Y73626D02*
G03*
X156905Y73626I-492J0D01*
G01*
X169905D02*
G03*
X169905Y73626I-492J0D01*
G01*
X182905D02*
G03*
X182905Y73626I-492J0D01*
G01*
X30866Y66913D02*
G03*
X30866Y66913I-492J0D01*
G01*
X63921Y67087D02*
G03*
X63921Y67102I492J0D01*
G01*
X217579Y7374D02*
G03*
X217579Y7374I-492J0D01*
G01*
X183579D02*
G03*
X183579Y7374I-492J0D01*
G01*
X169579D02*
G03*
X169579Y7374I-492J0D01*
G01*
X128055Y20004D02*
G03*
X128055Y20004I-492J0D01*
G01*
X198122Y139847D02*
G03*
X198122Y139847I-492J0D01*
G01*
X120374Y71850D02*
G03*
X120374Y71850I-492J0D01*
G01*
X109209Y133890D02*
G03*
X109209Y133890I-492J0D01*
G01*
D11*
X190347Y134709D02*
G03*
X190347Y134709I-1181J0D01*
G01*
X117717Y80315D02*
G03*
X117717Y80315I-1181J0D01*
G01*
D12*
X96236Y133874D02*
G03*
X96236Y133874I-394J0D01*
G01*
X252567Y142189D02*
X252567Y23724D01*
X203354Y142189D02*
X252567D01*
X203354Y23724D02*
X252567D01*
X203354D02*
Y142189D01*
X182842Y98504D02*
X184810Y96535D01*
X182842Y94567D02*
X184810Y96535D01*
Y96535D01*
X176542D02*
X184810D01*
X176542Y94567D02*
Y98504D01*
X158826Y77244D02*
X194653D01*
Y116220D01*
X158826D02*
X194653D01*
D13*
X-32201Y60000D02*
X17799D01*
Y100000D01*
X-32201Y60000D02*
Y100000D01*
X17799D01*
X-32201Y131500D02*
X17799D01*
X-32201Y101697D02*
Y131500D01*
X17799Y101697D02*
Y131500D01*
X-32201Y101697D02*
X17799D01*
X27437Y54992D02*
X31965D01*
Y29008D02*
Y54992D01*
X27437Y29008D02*
X31965D01*
X166256Y66441D02*
X169405D01*
Y69984D01*
X157595Y66441D02*
X160744D01*
X157595D02*
Y69984D01*
X179256Y66441D02*
X182405D01*
Y69984D01*
X170595Y66441D02*
X173744D01*
X170595D02*
Y69984D01*
X192256Y66441D02*
X195405D01*
Y69984D01*
X183595Y66441D02*
X186744D01*
X183595D02*
Y69984D01*
X188976Y43307D02*
X189764D01*
X141732D02*
X142520D01*
X94488D02*
X95276D01*
X37559Y76756D02*
Y79905D01*
X34016D02*
X37559D01*
Y68094D02*
Y71244D01*
X34016Y68094D02*
X37559D01*
X57032Y66102D02*
X60969D01*
X57032Y53898D02*
X60969D01*
Y66102D01*
X57032Y53898D02*
Y66102D01*
X204095Y14559D02*
X207244D01*
X204095Y11016D02*
Y14559D01*
X212756D02*
X215905D01*
Y11016D02*
Y14559D01*
X181905Y11016D02*
Y14559D01*
X178756D02*
X181905D01*
X170095Y11016D02*
Y14559D01*
X173244D01*
X156095D02*
X159244D01*
X156095Y11016D02*
Y14559D01*
X164756D02*
X167905D01*
Y11016D02*
Y14559D01*
X180898Y119354D02*
X193102D01*
X180898Y138646D02*
X193102D01*
X180898Y119354D02*
Y138646D01*
X193102Y119354D02*
Y138646D01*
X249252Y143307D02*
Y193307D01*
X209252D02*
X249252D01*
X209252Y143307D02*
X249252D01*
X209252D02*
Y193307D01*
X92126Y76378D02*
Y100787D01*
X120472Y76378D02*
Y100787D01*
X92126D02*
X120472D01*
X92126Y76378D02*
X120472D01*
X101413Y132905D02*
X106925D01*
X101413Y129559D02*
Y132905D01*
Y121095D02*
X106925D01*
X101413D02*
Y124441D01*
D14*
X148862Y70744D02*
X150831D01*
X148862Y76256D02*
X150831D01*
X148862Y64744D02*
X150831D01*
X148862Y70256D02*
X150831D01*
X147016Y59244D02*
X148984D01*
X147016Y64756D02*
X148984D01*
X24055Y21244D02*
X26024D01*
X24055Y26756D02*
X26024D01*
X21976Y61756D02*
X23945D01*
X21976Y56244D02*
X23945D01*
X148762Y45256D02*
X150731D01*
X148762Y39744D02*
X150731D01*
X195862Y50756D02*
X197831D01*
X195862Y45244D02*
X197831D01*
X195862Y45256D02*
X197831D01*
X195862Y39744D02*
X197831D01*
X195862Y56256D02*
X197831D01*
X195862Y50744D02*
X197831D01*
X148762Y56256D02*
X150731D01*
X148762Y50744D02*
X150731D01*
X148762Y50761D02*
X150731D01*
X148762Y45249D02*
X150731D01*
X103062Y51956D02*
X105031D01*
X103062Y46444D02*
X105031D01*
X102962Y39556D02*
X104931D01*
X102962Y34044D02*
X104931D01*
X103016Y45056D02*
X104984D01*
X103016Y39544D02*
X104984D01*
X73016Y73756D02*
X74984D01*
X73016Y68244D02*
X74984D01*
X51344Y102376D02*
Y104345D01*
X56856Y102376D02*
Y104345D01*
X56844Y102316D02*
Y104284D01*
X62356Y102316D02*
Y104284D01*
X56846Y88846D02*
Y90815D01*
X62358Y88846D02*
Y90815D01*
X33976Y65756D02*
X35945D01*
X33976Y60244D02*
X35945D01*
X52756Y45016D02*
Y46984D01*
X47244Y45016D02*
Y46984D01*
X65835Y45213D02*
Y46787D01*
X70165Y45213D02*
Y46787D01*
X53244Y45016D02*
Y46984D01*
X58756Y45016D02*
Y46984D01*
X64756Y45016D02*
Y46984D01*
X59244Y45016D02*
Y46984D01*
X73016Y67756D02*
X74984D01*
X73016Y62244D02*
X74984D01*
X218244Y10016D02*
Y11984D01*
X223756Y10016D02*
Y11984D01*
X200756Y10016D02*
Y11984D01*
X195244Y10016D02*
Y11984D01*
X189244Y10016D02*
Y11984D01*
X194756Y10016D02*
Y11984D01*
X141425Y11445D02*
X144575D01*
X141425Y4555D02*
X144575D01*
X164842Y133744D02*
X166811D01*
X164842Y139256D02*
X166811D01*
X133016Y88744D02*
X134984D01*
X133016Y94256D02*
X134984D01*
X133016Y82744D02*
X134984D01*
X133016Y88256D02*
X134984D01*
X133055Y68244D02*
X135024D01*
X133055Y73756D02*
X135024D01*
X72976Y97756D02*
X74945D01*
X72976Y92244D02*
X74945D01*
X73055Y98244D02*
X75024D01*
X73055Y103756D02*
X75024D01*
X132976Y107756D02*
X134945D01*
X132976Y102244D02*
X134945D01*
X132976Y79756D02*
X134945D01*
X132976Y74244D02*
X134945D01*
X119797Y60112D02*
Y62080D01*
X114285Y60112D02*
Y62080D01*
X101756Y60055D02*
Y62024D01*
X96244Y60055D02*
Y62024D01*
X104744Y60016D02*
Y61984D01*
X110256Y60016D02*
Y61984D01*
X62016Y116244D02*
X63984D01*
X62016Y121756D02*
X63984D01*
X30504Y92087D02*
Y94055D01*
X24992Y92087D02*
Y94055D01*
X56856Y88955D02*
Y90924D01*
X51344Y88955D02*
Y90924D01*
X73055Y86244D02*
X75024D01*
X73055Y91756D02*
X75024D01*
X73016Y80244D02*
X74984D01*
X73016Y85756D02*
X74984D01*
X73016Y74244D02*
X74984D01*
X73016Y79756D02*
X74984D01*
X149016Y104756D02*
X150984D01*
X149016Y99244D02*
X150984D01*
X149016Y98756D02*
X150984D01*
X149016Y93244D02*
X150984D01*
X75244Y143016D02*
Y144984D01*
X80756Y143016D02*
Y144984D01*
X148976Y111244D02*
X150945D01*
X148976Y116756D02*
X150945D01*
X148976Y105244D02*
X150945D01*
X148976Y110756D02*
X150945D01*
X148976Y84244D02*
X150945D01*
X148976Y89756D02*
X150945D01*
X149055Y83756D02*
X151024D01*
X149055Y78244D02*
X151024D01*
X92756Y142976D02*
Y144945D01*
X87244Y142976D02*
Y144945D01*
X93244Y143055D02*
Y145024D01*
X98756Y143055D02*
Y145024D01*
X86756Y142976D02*
Y144945D01*
X81244Y142976D02*
Y144945D01*
D15*
X112308Y7146D02*
X117663D01*
X112307Y20988D02*
X117661D01*
X199772Y33999D02*
X195836D01*
X197804Y35967D02*
Y32031D01*
D16*
X120197Y156575D02*
X155394D01*
X120197Y134252D02*
Y142913D01*
X155394Y134252D02*
Y142913D01*
X77732Y134268D02*
X79701D01*
X77732Y132299D02*
Y134268D01*
Y117732D02*
Y119701D01*
Y117732D02*
X79701D01*
X92299D02*
X94268D01*
Y119701D01*
X92299Y134268D02*
X94268D01*
Y132299D02*
Y134268D01*
D17*
X226064Y98308D02*
Y99489D01*
Y98898D01*
X229016D01*
X229606Y99489D01*
Y100079D01*
X229016Y100669D01*
X226064Y97127D02*
X229606D01*
Y94766D01*
X226655Y91224D02*
X226064Y91814D01*
Y92995D01*
X226655Y93585D01*
X229016D01*
X229606Y92995D01*
Y91814D01*
X229016Y91224D01*
X226064Y87681D02*
Y88862D01*
Y88272D01*
X229016D01*
X229606Y88862D01*
Y89452D01*
X229016Y90043D01*
X226064Y86501D02*
X229606D01*
Y84139D01*
X226655Y80597D02*
X226064Y81187D01*
Y82368D01*
X226655Y82959D01*
X229016D01*
X229606Y82368D01*
Y81187D01*
X229016Y80597D01*
X226064Y77055D02*
Y78236D01*
Y77645D01*
X229016D01*
X229606Y78236D01*
Y78826D01*
X229016Y79416D01*
X226064Y75874D02*
X229606D01*
Y73513D01*
X226655Y69971D02*
X226064Y70561D01*
Y71742D01*
X226655Y72332D01*
X229016D01*
X229606Y71742D01*
Y70561D01*
X229016Y69971D01*
X226064Y66428D02*
Y67609D01*
Y67019D01*
X229016D01*
X229606Y67609D01*
Y68199D01*
X229016Y68790D01*
X226064Y65248D02*
X229606D01*
Y62886D01*
X226655Y59344D02*
X226064Y59935D01*
Y61115D01*
X226655Y61705D01*
X229016D01*
X229606Y61115D01*
Y59935D01*
X229016Y59344D01*
D18*
X24499Y145831D02*
X20501D01*
X24499Y143165D01*
X20501D01*
X24499Y141832D02*
X20501D01*
Y139833D01*
X21167Y139166D01*
X22500D01*
X23167Y139833D01*
Y141832D01*
Y140499D02*
X24499Y139166D01*
X21167Y135168D02*
X20501Y135834D01*
Y137167D01*
X21167Y137833D01*
X21834D01*
X22500Y137167D01*
Y135834D01*
X23167Y135168D01*
X23833D01*
X24499Y135834D01*
Y137167D01*
X23833Y137833D01*
X20501Y133835D02*
Y131169D01*
Y132502D01*
X24499D01*
X70501Y149330D02*
X74499D01*
Y147331D01*
X73833Y146665D01*
X73166D01*
X72500Y147331D01*
Y149330D01*
Y147331D01*
X71834Y146665D01*
X71167D01*
X70501Y147331D01*
Y149330D01*
Y143332D02*
Y144665D01*
X71167Y145332D01*
X73833D01*
X74499Y144665D01*
Y143332D01*
X73833Y142666D01*
X71167D01*
X70501Y143332D01*
Y139333D02*
Y140666D01*
X71167Y141333D01*
X73833D01*
X74499Y140666D01*
Y139333D01*
X73833Y138667D01*
X71167D01*
X70501Y139333D01*
Y137334D02*
Y134668D01*
Y136001D01*
X74499D01*
X71167Y133335D02*
X70501Y132669D01*
Y131336D01*
X71167Y130670D01*
X73833D01*
X74499Y131336D01*
Y132669D01*
X73833Y133335D01*
X71167D01*
M02*
