G04*
G04 #@! TF.GenerationSoftware,Altium Limited,Altium Designer,20.1.12 (249)*
G04*
G04 Layer_Color=32768*
%FSLAX25Y25*%
%MOIN*%
G70*
G04*
G04 #@! TF.SameCoordinates,5D91F948-5D34-48A5-82E7-886A0B8BAD73*
G04*
G04*
G04 #@! TF.FilePolarity,Positive*
G04*
G01*
G75*
%ADD10C,0.01000*%
%ADD93C,0.00394*%
%ADD100C,0.00197*%
D10*
X55905Y139764D02*
X62205D01*
X59055Y136614D02*
Y142913D01*
X32283Y139764D02*
X38583D01*
X35433Y136614D02*
Y142913D01*
D93*
X149059Y73500D02*
X150634D01*
X149846Y72713D02*
Y74287D01*
X143547Y70744D02*
X156146D01*
Y76256D01*
X143547D02*
X156146D01*
X143547Y70744D02*
Y76256D01*
X149059Y67500D02*
X150634D01*
X149846Y66713D02*
Y68287D01*
X143547Y64744D02*
X156146D01*
Y70256D01*
X143547D02*
X156146D01*
X143547Y64744D02*
Y70256D01*
X147213Y62000D02*
X148787D01*
X148000Y61213D02*
Y62787D01*
X141701Y59244D02*
X154299D01*
Y64756D01*
X141701D02*
X154299D01*
X141701Y59244D02*
Y64756D01*
X24213Y24000D02*
X25787D01*
X25000Y23213D02*
Y24787D01*
X18701Y21244D02*
X31299D01*
Y26756D01*
X18701D02*
X31299D01*
X18701Y21244D02*
Y26756D01*
X22213Y59000D02*
X23787D01*
X23000Y58213D02*
Y59787D01*
X16701Y61756D02*
X29299D01*
X16701Y56244D02*
Y61756D01*
Y56244D02*
X29299D01*
Y61756D01*
X148959Y42500D02*
X150534D01*
X149747Y41713D02*
Y43287D01*
X143447Y45256D02*
X156046D01*
X143447Y39744D02*
Y45256D01*
Y39744D02*
X156046D01*
Y45256D01*
X196059Y48000D02*
X197634D01*
X196846Y47213D02*
Y48787D01*
X190547Y50756D02*
X203146D01*
X190547Y45244D02*
Y50756D01*
Y45244D02*
X203146D01*
Y50756D01*
X196059Y42500D02*
X197634D01*
X196846Y41713D02*
Y43287D01*
X190547Y45256D02*
X203146D01*
X190547Y39744D02*
Y45256D01*
Y39744D02*
X203146D01*
Y45256D01*
X196059Y53500D02*
X197634D01*
X196846Y52713D02*
Y54287D01*
X190547Y56256D02*
X203146D01*
X190547Y50744D02*
Y56256D01*
Y50744D02*
X203146D01*
Y56256D01*
X21531Y42000D02*
X25469D01*
X23500Y40031D02*
Y43968D01*
X148959Y53500D02*
X150534D01*
X149747Y52713D02*
Y54287D01*
X143447Y56256D02*
X156046D01*
X143447Y50744D02*
Y56256D01*
Y50744D02*
X156046D01*
Y56256D01*
X148959Y48005D02*
X150534D01*
X149747Y47217D02*
Y48792D01*
X143447Y50761D02*
X156046D01*
X143447Y45249D02*
Y50761D01*
Y45249D02*
X156046D01*
Y50761D01*
X103259Y49200D02*
X104834D01*
X104046Y48413D02*
Y49987D01*
X97747Y51956D02*
X110346D01*
X97747Y46444D02*
Y51956D01*
Y46444D02*
X110346D01*
Y51956D01*
X103159Y36800D02*
X104734D01*
X103946Y36013D02*
Y37587D01*
X97647Y39556D02*
X110246D01*
X97647Y34044D02*
Y39556D01*
Y34044D02*
X110246D01*
Y39556D01*
X103213Y42300D02*
X104787D01*
X104000Y41513D02*
Y43087D01*
X97701Y45056D02*
X110299D01*
X97701Y39544D02*
Y45056D01*
Y39544D02*
X110299D01*
Y45056D01*
X161531Y69000D02*
X165469D01*
X163500Y67032D02*
Y70969D01*
X174531Y69000D02*
X178469D01*
X176500Y67032D02*
Y70969D01*
X187531Y69000D02*
X191469D01*
X189500Y67032D02*
Y70969D01*
X188583Y42520D02*
X189764D01*
X188583Y44094D02*
X189764D01*
Y39764D02*
Y46850D01*
X180315Y39764D02*
Y46850D01*
X189764D01*
X180315Y39764D02*
X189764D01*
X180315Y40945D02*
Y43307D01*
X189370Y42520D02*
Y44094D01*
X188976Y42520D02*
Y44094D01*
X188583Y42520D02*
Y44094D01*
X141339Y42520D02*
X142520D01*
X141339Y44094D02*
X142520D01*
Y39764D02*
Y46850D01*
X133071Y39764D02*
Y46850D01*
X142520D01*
X133071Y39764D02*
X142520D01*
X133071Y40945D02*
Y43307D01*
X142126Y42520D02*
Y44094D01*
X141732Y42520D02*
Y44094D01*
X141339Y42520D02*
Y44094D01*
X94095Y42520D02*
X95276D01*
X94095Y44094D02*
X95276D01*
Y39764D02*
Y46850D01*
X85827Y39764D02*
Y46850D01*
X95276D01*
X85827Y39764D02*
X95276D01*
X85827Y40945D02*
Y43307D01*
X94882Y42520D02*
Y44094D01*
X94488Y42520D02*
Y44094D01*
X94095Y42520D02*
Y44094D01*
X67701Y68244D02*
Y73756D01*
X80299D01*
Y68244D02*
Y73756D01*
X67701Y68244D02*
X80299D01*
X74000Y70213D02*
Y71787D01*
X73213Y71000D02*
X74787D01*
X54100Y102613D02*
Y104187D01*
X53313Y103400D02*
X54887D01*
X51344Y97101D02*
Y109699D01*
Y97101D02*
X56856D01*
Y109699D01*
X51344D02*
X56856D01*
X59600Y102513D02*
Y104087D01*
X58813Y103300D02*
X60387D01*
X56844Y97001D02*
Y109599D01*
Y97001D02*
X62356D01*
Y109599D01*
X56844D02*
X62356D01*
X59602Y89043D02*
Y90618D01*
X58815Y89831D02*
X60390D01*
X56846Y83531D02*
Y96130D01*
Y83531D02*
X62358D01*
Y96130D01*
X56846D02*
X62358D01*
X34213Y63000D02*
X35787D01*
X35000Y62213D02*
Y63787D01*
X28701Y65756D02*
X41299D01*
X28701Y60244D02*
Y65756D01*
Y60244D02*
X41299D01*
Y65756D01*
X35000Y72031D02*
Y75968D01*
X33031Y74000D02*
X36968D01*
X50000Y45213D02*
Y46787D01*
X49213Y46000D02*
X50787D01*
X52756Y39701D02*
Y52299D01*
X47244D02*
X52756D01*
X47244Y39701D02*
Y52299D01*
Y39701D02*
X52756D01*
X68000Y45508D02*
Y46492D01*
X67508Y46000D02*
X68492D01*
X70165Y40882D02*
Y51118D01*
X65835D02*
X70165D01*
X65835Y40882D02*
Y51118D01*
Y40882D02*
X70165D01*
X56000Y45213D02*
Y46787D01*
X55213Y46000D02*
X56787D01*
X53244Y39701D02*
Y52299D01*
Y39701D02*
X58756D01*
Y52299D01*
X53244D02*
X58756D01*
X62000Y45213D02*
Y46787D01*
X61213Y46000D02*
X62787D01*
X64756Y39701D02*
Y52299D01*
X59244D02*
X64756D01*
X59244Y39701D02*
Y52299D01*
Y39701D02*
X64756D01*
X73213Y65000D02*
X74787D01*
X74000Y64213D02*
Y65787D01*
X67701Y67756D02*
X80299D01*
X67701Y62244D02*
Y67756D01*
Y62244D02*
X80299D01*
Y67756D01*
X57032Y60000D02*
X60969D01*
X59000Y58031D02*
Y61968D01*
X221000Y10213D02*
Y11787D01*
X220213Y11000D02*
X221787D01*
X218244Y4701D02*
Y17299D01*
Y4701D02*
X223756D01*
Y17299D01*
X218244D02*
X223756D01*
X198000Y10213D02*
Y11787D01*
X197213Y11000D02*
X198787D01*
X200756Y4701D02*
Y17299D01*
X195244D02*
X200756D01*
X195244Y4701D02*
Y17299D01*
Y4701D02*
X200756D01*
X208032Y12000D02*
X211968D01*
X210000Y10031D02*
Y13969D01*
X192000Y10213D02*
Y11787D01*
X191213Y11000D02*
X192787D01*
X189244Y4701D02*
Y17299D01*
Y4701D02*
X194756D01*
Y17299D01*
X189244D02*
X194756D01*
X176000Y10031D02*
Y13969D01*
X174031Y12000D02*
X177969D01*
X160031D02*
X163969D01*
X162000Y10031D02*
Y13969D01*
X165000Y136500D02*
X166575D01*
X165787Y135713D02*
Y137287D01*
X159488Y133744D02*
X172087D01*
Y139256D01*
X159488D02*
X172087D01*
X159488Y133744D02*
Y139256D01*
X187000Y127032D02*
Y130968D01*
X185031Y129000D02*
X188969D01*
X133213Y91500D02*
X134787D01*
X134000Y90713D02*
Y92287D01*
X127701Y88744D02*
X140299D01*
Y94256D01*
X127701D02*
X140299D01*
X127701Y88744D02*
Y94256D01*
X133213Y85500D02*
X134787D01*
X134000Y84713D02*
Y86287D01*
X127701Y82744D02*
X140299D01*
Y88256D01*
X127701D02*
X140299D01*
X127701Y82744D02*
Y88256D01*
X133213Y71000D02*
X134787D01*
X134000Y70213D02*
Y71787D01*
X127701Y68244D02*
X140299D01*
Y73756D01*
X127701D02*
X140299D01*
X127701Y68244D02*
Y73756D01*
X73213Y95000D02*
X74787D01*
X74000Y94213D02*
Y95787D01*
X67701Y97756D02*
X80299D01*
X67701Y92244D02*
Y97756D01*
Y92244D02*
X80299D01*
Y97756D01*
X73213Y101000D02*
X74787D01*
X74000Y100213D02*
Y101787D01*
X67701Y98244D02*
X80299D01*
Y103756D01*
X67701D02*
X80299D01*
X67701Y98244D02*
Y103756D01*
X133213Y105000D02*
X134787D01*
X134000Y104213D02*
Y105787D01*
X127701Y107756D02*
X140299D01*
X127701Y102244D02*
Y107756D01*
Y102244D02*
X140299D01*
Y107756D01*
X133213Y77000D02*
X134787D01*
X134000Y76213D02*
Y77787D01*
X127701Y79756D02*
X140299D01*
X127701Y74244D02*
Y79756D01*
Y74244D02*
X140299D01*
Y79756D01*
X117041Y60269D02*
Y61844D01*
X116253Y61056D02*
X117828D01*
X119797Y54757D02*
Y67356D01*
X114285D02*
X119797D01*
X114285Y54757D02*
Y67356D01*
Y54757D02*
X119797D01*
X99000Y60213D02*
Y61787D01*
X98213Y61000D02*
X99787D01*
X101756Y54701D02*
Y67299D01*
X96244D02*
X101756D01*
X96244Y54701D02*
Y67299D01*
Y54701D02*
X101756D01*
X107500Y60213D02*
Y61787D01*
X106713Y61000D02*
X108287D01*
X104744Y54701D02*
Y67299D01*
Y54701D02*
X110256D01*
Y67299D01*
X104744D02*
X110256D01*
X62213Y119000D02*
X63787D01*
X63000Y118213D02*
Y119787D01*
X56701Y116244D02*
X69299D01*
Y121756D01*
X56701D02*
X69299D01*
X56701Y116244D02*
Y121756D01*
X48425Y156693D02*
X69685D01*
Y122835D02*
Y156693D01*
X48425Y122835D02*
X69685D01*
X48425D02*
Y156693D01*
X24803D02*
X46063D01*
Y122835D02*
Y156693D01*
X24803Y122835D02*
X46063D01*
X24803D02*
Y156693D01*
X27748Y92244D02*
Y93819D01*
X26961Y93032D02*
X28535D01*
X30504Y86732D02*
Y99331D01*
X24992D02*
X30504D01*
X24992Y86732D02*
Y99331D01*
Y86732D02*
X30504D01*
X54100Y89113D02*
Y90687D01*
X53313Y89900D02*
X54887D01*
X56856Y83601D02*
Y96199D01*
X51344D02*
X56856D01*
X51344Y83601D02*
Y96199D01*
Y83601D02*
X56856D01*
X73213Y89000D02*
X74787D01*
X74000Y88213D02*
Y89787D01*
X67701Y86244D02*
X80299D01*
Y91756D01*
X67701D02*
X80299D01*
X67701Y86244D02*
Y91756D01*
X73213Y83000D02*
X74787D01*
X74000Y82213D02*
Y83787D01*
X67701Y80244D02*
X80299D01*
Y85756D01*
X67701D02*
X80299D01*
X67701Y80244D02*
Y85756D01*
X73213Y77000D02*
X74787D01*
X74000Y76213D02*
Y77787D01*
X67701Y74244D02*
X80299D01*
Y79756D01*
X67701D02*
X80299D01*
X67701Y74244D02*
Y79756D01*
X77732Y117732D02*
Y134268D01*
Y117732D02*
X94268D01*
X77732Y134268D02*
X94268D01*
Y117732D02*
Y134268D01*
X104331Y88583D02*
X108268D01*
X106299Y86614D02*
Y90551D01*
X143701Y99244D02*
Y104756D01*
X156299D01*
Y99244D02*
Y104756D01*
X143701Y99244D02*
X156299D01*
X150000Y101213D02*
Y102787D01*
X149213Y102000D02*
X150787D01*
X143701Y93244D02*
Y98756D01*
X156299D01*
Y93244D02*
Y98756D01*
X143701Y93244D02*
X156299D01*
X150000Y95213D02*
Y96787D01*
X149213Y96000D02*
X150787D01*
X75244Y137701D02*
X80756D01*
X75244D02*
Y150299D01*
X80756D01*
Y137701D02*
Y150299D01*
X77213Y144000D02*
X78787D01*
X78000Y143213D02*
Y144787D01*
X102890Y127000D02*
X106827D01*
X104858Y125031D02*
Y128969D01*
X156299Y111244D02*
Y116756D01*
X143701Y111244D02*
X156299D01*
X143701D02*
Y116756D01*
X156299D01*
X150000Y113213D02*
Y114787D01*
X149213Y114000D02*
X150787D01*
X156299Y105244D02*
Y110756D01*
X143701Y105244D02*
X156299D01*
X143701D02*
Y110756D01*
X156299D01*
X150000Y107213D02*
Y108787D01*
X149213Y108000D02*
X150787D01*
X156299Y84244D02*
Y89756D01*
X143701Y84244D02*
X156299D01*
X143701D02*
Y89756D01*
X156299D01*
X150000Y86213D02*
Y87787D01*
X149213Y87000D02*
X150787D01*
X143701Y78244D02*
Y83756D01*
X156299D01*
Y78244D02*
Y83756D01*
X143701Y78244D02*
X156299D01*
X150000Y80213D02*
Y81787D01*
X149213Y81000D02*
X150787D01*
X87244Y150299D02*
X92756D01*
Y137701D02*
Y150299D01*
X87244Y137701D02*
X92756D01*
X87244D02*
Y150299D01*
X89213Y144000D02*
X90787D01*
X90000Y143213D02*
Y144787D01*
X93244Y137701D02*
X98756D01*
X93244D02*
Y150299D01*
X98756D01*
Y137701D02*
Y150299D01*
X95213Y144000D02*
X96787D01*
X96000Y143213D02*
Y144787D01*
X81244Y150299D02*
X86756D01*
Y137701D02*
Y150299D01*
X81244Y137701D02*
X86756D01*
X81244D02*
Y150299D01*
X83213Y144000D02*
X84787D01*
X84000Y143213D02*
Y144787D01*
D100*
X45449Y28024D02*
Y55976D01*
X1551Y28024D02*
Y55976D01*
X45449D01*
X1551Y28024D02*
X45449D01*
X170390Y61421D02*
Y76579D01*
X156610Y61421D02*
Y76579D01*
Y61421D02*
X170390D01*
X156610Y76579D02*
X170390D01*
X183390Y61421D02*
Y76579D01*
X169610Y61421D02*
Y76579D01*
Y61421D02*
X183390D01*
X169610Y76579D02*
X183390D01*
X196390Y61421D02*
Y76579D01*
X182610Y61421D02*
Y76579D01*
Y61421D02*
X196390D01*
X182610Y76579D02*
X196390D01*
X27421Y80890D02*
X42579D01*
X27421Y67110D02*
X42579D01*
Y80890D01*
X27421Y67110D02*
Y80890D01*
X67268Y52913D02*
Y67087D01*
X50732Y52913D02*
Y67087D01*
X67268D01*
X50732Y52913D02*
X67268D01*
X203110Y4421D02*
Y19579D01*
X216890Y4421D02*
Y19579D01*
X203110D02*
X216890D01*
X203110Y4421D02*
X216890D01*
X169110D02*
X182890D01*
X169110Y19579D02*
X182890D01*
Y4421D02*
Y19579D01*
X169110Y4421D02*
Y19579D01*
X155110Y4421D02*
Y19579D01*
X168890Y4421D02*
Y19579D01*
X155110D02*
X168890D01*
X155110Y4421D02*
X168890D01*
X172531Y118370D02*
X201468D01*
X172531Y139630D02*
X201468D01*
X172531Y118370D02*
Y139630D01*
X201468Y118370D02*
Y139630D01*
X117244Y123189D02*
X158346D01*
Y158268D01*
X117244D02*
X158346D01*
X117244Y123189D02*
Y158268D01*
X85827Y68110D02*
Y109055D01*
X126772Y68110D02*
Y109055D01*
X85827D02*
X126772D01*
X85827Y68110D02*
X126772D01*
X113126Y120110D02*
Y133890D01*
X96591Y120110D02*
Y133890D01*
X113126D01*
X96591Y120110D02*
X113126D01*
X181039Y42339D02*
Y44307D01*
X182023D01*
X182351Y43979D01*
Y42667D01*
X182023Y42339D01*
X181039D01*
X183991Y44307D02*
Y42339D01*
X183007Y43323D01*
X184319D01*
X133795Y42339D02*
Y44307D01*
X134779D01*
X135107Y43979D01*
Y42667D01*
X134779Y42339D01*
X133795D01*
X135763Y42667D02*
X136091Y42339D01*
X136747D01*
X137075Y42667D01*
Y42995D01*
X136747Y43323D01*
X136419D01*
X136747D01*
X137075Y43651D01*
Y43979D01*
X136747Y44307D01*
X136091D01*
X135763Y43979D01*
X86551Y42339D02*
Y44307D01*
X87535D01*
X87863Y43979D01*
Y42667D01*
X87535Y42339D01*
X86551D01*
X89831Y44307D02*
X88519D01*
X89831Y42995D01*
Y42667D01*
X89503Y42339D01*
X88847D01*
X88519Y42667D01*
X89150Y126984D02*
Y125344D01*
X88822Y125016D01*
X88166D01*
X87838Y125344D01*
Y126984D01*
X85870D02*
X86526Y126656D01*
X87182Y126000D01*
Y125344D01*
X86854Y125016D01*
X86198D01*
X85870Y125344D01*
Y125672D01*
X86198Y126000D01*
X87182D01*
M02*
